%TF.GenerationSoftware,KiCad,Pcbnew,(5.1.10)-1*%
%TF.CreationDate,2021-08-31T13:48:21-07:00*%
%TF.ProjectId,Power Supply,506f7765-7220-4537-9570-706c792e6b69,rev?*%
%TF.SameCoordinates,Original*%
%TF.FileFunction,Copper,L2,Bot*%
%TF.FilePolarity,Positive*%
%FSLAX46Y46*%
G04 Gerber Fmt 4.6, Leading zero omitted, Abs format (unit mm)*
G04 Created by KiCad (PCBNEW (5.1.10)-1) date 2021-08-31 13:48:21*
%MOMM*%
%LPD*%
G01*
G04 APERTURE LIST*
%TA.AperFunction,ComponentPad*%
%ADD10C,1.440000*%
%TD*%
%TA.AperFunction,ComponentPad*%
%ADD11O,2.400000X2.400000*%
%TD*%
%TA.AperFunction,ComponentPad*%
%ADD12C,2.400000*%
%TD*%
%TA.AperFunction,ComponentPad*%
%ADD13C,3.000000*%
%TD*%
%TA.AperFunction,ComponentPad*%
%ADD14R,3.000000X3.000000*%
%TD*%
%TA.AperFunction,ComponentPad*%
%ADD15O,3.200000X3.200000*%
%TD*%
%TA.AperFunction,ComponentPad*%
%ADD16R,3.200000X3.200000*%
%TD*%
%TA.AperFunction,ViaPad*%
%ADD17C,0.800000*%
%TD*%
%TA.AperFunction,Conductor*%
%ADD18C,0.254000*%
%TD*%
%TA.AperFunction,Conductor*%
%ADD19C,0.100000*%
%TD*%
G04 APERTURE END LIST*
D10*
%TO.P,Current,3*%
%TO.N,+3V3*%
X213360000Y-63373000D03*
%TO.P,Current,2*%
%TO.N,Net-(RV2-Pad2)*%
X210820000Y-65913000D03*
%TO.P,Current,1*%
%TO.N,GND*%
X213360000Y-68453000D03*
%TD*%
%TO.P,Voltage,3*%
%TO.N,+VDC*%
X192278000Y-42545000D03*
%TO.P,Voltage,2*%
%TO.N,CurrentLimiter*%
X194818000Y-40005000D03*
%TO.P,Voltage,1*%
%TO.N,GND*%
X192278000Y-37465000D03*
%TD*%
D11*
%TO.P,R5,2*%
%TO.N,+VDC*%
X193040000Y-47498000D03*
D12*
%TO.P,R5,1*%
%TO.N,-VDC*%
X193040000Y-69898000D03*
%TD*%
D13*
%TO.P,GND    -     +,3*%
%TO.N,GND*%
X180975000Y-65278000D03*
%TO.P,GND    -     +,2*%
%TO.N,-VDC*%
X180975000Y-60278000D03*
D14*
%TO.P,GND    -     +,1*%
%TO.N,+VDC*%
X180975000Y-55278000D03*
%TD*%
D13*
%TO.P,+     -,2*%
%TO.N,GND*%
X257603000Y-64643000D03*
D14*
%TO.P,+     -,1*%
%TO.N,+BATT*%
X252603000Y-64643000D03*
%TD*%
D15*
%TO.P,D4,2*%
%TO.N,Net-(D4-Pad2)*%
X202692000Y-53975000D03*
D16*
%TO.P,D4,1*%
%TO.N,CurrentLimiter*%
X202692000Y-38735000D03*
%TD*%
D15*
%TO.P,D3,2*%
%TO.N,Net-(D3-Pad2)*%
X225044000Y-41021000D03*
D16*
%TO.P,D3,1*%
%TO.N,+VDC*%
X209804000Y-41021000D03*
%TD*%
D15*
%TO.P,D2,2*%
%TO.N,Net-(D2-Pad2)*%
X224536000Y-49022000D03*
D16*
%TO.P,D2,1*%
%TO.N,Net-(D1-Pad1)*%
X209296000Y-49022000D03*
%TD*%
D17*
%TO.N,GND*%
X259207000Y-41656000D03*
X256540000Y-41656000D03*
X254000000Y-41656000D03*
X251333000Y-41656000D03*
X248539000Y-48387000D03*
X259461000Y-54864000D03*
X256794000Y-54864000D03*
X254254000Y-54864000D03*
X251587000Y-54864000D03*
X251206000Y-43815000D03*
X251206000Y-45974000D03*
X251206000Y-48260000D03*
X251206000Y-50546000D03*
X254762000Y-37084000D03*
X247523000Y-37211000D03*
X259207000Y-39497000D03*
X256667000Y-39243000D03*
X254000000Y-39370000D03*
X256667000Y-37084000D03*
X259207000Y-37211000D03*
X259207000Y-34417000D03*
X256667000Y-34417000D03*
X254000000Y-34417000D03*
X251460000Y-34417000D03*
X249174000Y-34417000D03*
X246761000Y-34417000D03*
X243967000Y-34417000D03*
X243713000Y-41656000D03*
X249174000Y-37211000D03*
X181610000Y-35179000D03*
X192278000Y-35687000D03*
X190373000Y-37465000D03*
X180975000Y-68707000D03*
X200406000Y-67183000D03*
X198628000Y-66294000D03*
X213360000Y-70485000D03*
X216027000Y-68453000D03*
X219837000Y-71501000D03*
X226695000Y-71628000D03*
X241300000Y-65532000D03*
X241300000Y-66929000D03*
X241300000Y-68326000D03*
X241300000Y-69596000D03*
X241300000Y-71120000D03*
X243205000Y-69596000D03*
X247777000Y-69469000D03*
X201676000Y-59436000D03*
X221615000Y-61468000D03*
X217678000Y-60325000D03*
X219964000Y-61595000D03*
X217043000Y-34417000D03*
X219329000Y-34417000D03*
X211836000Y-34417000D03*
X224536000Y-34417000D03*
X214630000Y-34417000D03*
X221869000Y-34417000D03*
X227076000Y-34417000D03*
X209931000Y-34417000D03*
X199898000Y-34417000D03*
X197485000Y-34417000D03*
X207391000Y-34417000D03*
X194691000Y-34417000D03*
X204724000Y-34417000D03*
X202184000Y-34417000D03*
X190246000Y-34417000D03*
X182753000Y-34417000D03*
X192786000Y-34417000D03*
X187579000Y-34417000D03*
X177546000Y-34417000D03*
X180340000Y-34417000D03*
X185039000Y-34417000D03*
X175514000Y-49911000D03*
X175514000Y-34417000D03*
X175514000Y-44450000D03*
X175514000Y-36957000D03*
X175514000Y-39624000D03*
X175514000Y-46863000D03*
X175514000Y-42164000D03*
X187071000Y-69977000D03*
X182372000Y-69977000D03*
X179832000Y-69977000D03*
X177165000Y-69977000D03*
X174625000Y-69977000D03*
X184658000Y-69977000D03*
X187071000Y-71501000D03*
X179832000Y-71501000D03*
X174625000Y-71501000D03*
X184658000Y-71501000D03*
X177165000Y-71501000D03*
X182372000Y-71501000D03*
X177800000Y-49911000D03*
X177800000Y-46863000D03*
X177800000Y-44450000D03*
X183896000Y-44577000D03*
X183896000Y-50038000D03*
X183896000Y-46990000D03*
X186817000Y-46990000D03*
X186817000Y-50038000D03*
X186817000Y-44577000D03*
X206883000Y-55626000D03*
X206883000Y-58674000D03*
X206883000Y-53213000D03*
X198120000Y-51435000D03*
X198120000Y-53721000D03*
X198120000Y-49022000D03*
X198247000Y-43307000D03*
X198247000Y-40894000D03*
X198247000Y-45593000D03*
X210947000Y-72009000D03*
X213360000Y-72009000D03*
X215646000Y-72009000D03*
X218059000Y-67183000D03*
X218059000Y-71882000D03*
X218059000Y-69469000D03*
X208153000Y-67310000D03*
X208153000Y-72009000D03*
X208153000Y-69596000D03*
X248031000Y-71755000D03*
X243332000Y-71755000D03*
X245745000Y-71755000D03*
X247777000Y-54229000D03*
X247777000Y-56515000D03*
X247777000Y-58928000D03*
X243840000Y-58801000D03*
X243840000Y-56388000D03*
X243840000Y-54102000D03*
%TD*%
D18*
%TO.N,GND*%
X260703935Y-72238000D02*
X174269000Y-72238000D01*
X174269000Y-69717268D01*
X191205000Y-69717268D01*
X191205000Y-70078732D01*
X191275518Y-70433250D01*
X191413844Y-70767199D01*
X191614662Y-71067744D01*
X191870256Y-71323338D01*
X192170801Y-71524156D01*
X192504750Y-71662482D01*
X192859268Y-71733000D01*
X193220732Y-71733000D01*
X193575250Y-71662482D01*
X193909199Y-71524156D01*
X194209744Y-71323338D01*
X194465338Y-71067744D01*
X194666156Y-70767199D01*
X194804482Y-70433250D01*
X194875000Y-70078732D01*
X194875000Y-69717268D01*
X194809616Y-69388560D01*
X212604045Y-69388560D01*
X212665932Y-69624368D01*
X212907790Y-69737266D01*
X213167027Y-69800811D01*
X213433680Y-69812561D01*
X213697501Y-69772063D01*
X213948353Y-69680875D01*
X214054068Y-69624368D01*
X214115955Y-69388560D01*
X213360000Y-68632605D01*
X212604045Y-69388560D01*
X194809616Y-69388560D01*
X194804482Y-69362750D01*
X194666156Y-69028801D01*
X194465338Y-68728256D01*
X194263762Y-68526680D01*
X212000439Y-68526680D01*
X212040937Y-68790501D01*
X212132125Y-69041353D01*
X212188632Y-69147068D01*
X212424440Y-69208955D01*
X213180395Y-68453000D01*
X213539605Y-68453000D01*
X214295560Y-69208955D01*
X214531368Y-69147068D01*
X214644266Y-68905210D01*
X214707811Y-68645973D01*
X214719561Y-68379320D01*
X214679063Y-68115499D01*
X214587875Y-67864647D01*
X214531368Y-67758932D01*
X214295560Y-67697045D01*
X213539605Y-68453000D01*
X213180395Y-68453000D01*
X212424440Y-67697045D01*
X212188632Y-67758932D01*
X212075734Y-68000790D01*
X212012189Y-68260027D01*
X212000439Y-68526680D01*
X194263762Y-68526680D01*
X194209744Y-68472662D01*
X193909199Y-68271844D01*
X193575250Y-68133518D01*
X193220732Y-68063000D01*
X192859268Y-68063000D01*
X192504750Y-68133518D01*
X192170801Y-68271844D01*
X191870256Y-68472662D01*
X191614662Y-68728256D01*
X191413844Y-69028801D01*
X191275518Y-69362750D01*
X191205000Y-69717268D01*
X174269000Y-69717268D01*
X174269000Y-67517440D01*
X212604045Y-67517440D01*
X213360000Y-68273395D01*
X214115955Y-67517440D01*
X214054068Y-67281632D01*
X213812210Y-67168734D01*
X213552973Y-67105189D01*
X213286320Y-67093439D01*
X213022499Y-67133937D01*
X212771647Y-67225125D01*
X212665932Y-67281632D01*
X212604045Y-67517440D01*
X174269000Y-67517440D01*
X174269000Y-66769653D01*
X179662952Y-66769653D01*
X179818962Y-67085214D01*
X180193745Y-67276020D01*
X180598551Y-67390044D01*
X181017824Y-67422902D01*
X181435451Y-67373334D01*
X181835383Y-67243243D01*
X182131038Y-67085214D01*
X182287048Y-66769653D01*
X180975000Y-65457605D01*
X179662952Y-66769653D01*
X174269000Y-66769653D01*
X174269000Y-65320824D01*
X178830098Y-65320824D01*
X178879666Y-65738451D01*
X179009757Y-66138383D01*
X179167786Y-66434038D01*
X179483347Y-66590048D01*
X180795395Y-65278000D01*
X181154605Y-65278000D01*
X182466653Y-66590048D01*
X182782214Y-66434038D01*
X182973020Y-66059255D01*
X183051807Y-65779544D01*
X209465000Y-65779544D01*
X209465000Y-66046456D01*
X209517072Y-66308239D01*
X209619215Y-66554833D01*
X209767503Y-66776762D01*
X209956238Y-66965497D01*
X210178167Y-67113785D01*
X210424761Y-67215928D01*
X210686544Y-67268000D01*
X210953456Y-67268000D01*
X211215239Y-67215928D01*
X211461833Y-67113785D01*
X211683762Y-66965497D01*
X211872497Y-66776762D01*
X212020785Y-66554833D01*
X212122928Y-66308239D01*
X212175000Y-66046456D01*
X212175000Y-65779544D01*
X212122928Y-65517761D01*
X212020785Y-65271167D01*
X211872497Y-65049238D01*
X211683762Y-64860503D01*
X211461833Y-64712215D01*
X211215239Y-64610072D01*
X210953456Y-64558000D01*
X210686544Y-64558000D01*
X210424761Y-64610072D01*
X210178167Y-64712215D01*
X209956238Y-64860503D01*
X209767503Y-65049238D01*
X209619215Y-65271167D01*
X209517072Y-65517761D01*
X209465000Y-65779544D01*
X183051807Y-65779544D01*
X183087044Y-65654449D01*
X183119902Y-65235176D01*
X183070334Y-64817549D01*
X182940243Y-64417617D01*
X182782214Y-64121962D01*
X182466653Y-63965952D01*
X181154605Y-65278000D01*
X180795395Y-65278000D01*
X179483347Y-63965952D01*
X179167786Y-64121962D01*
X178976980Y-64496745D01*
X178862956Y-64901551D01*
X178830098Y-65320824D01*
X174269000Y-65320824D01*
X174269000Y-63786347D01*
X179662952Y-63786347D01*
X180975000Y-65098395D01*
X182287048Y-63786347D01*
X182131038Y-63470786D01*
X181756255Y-63279980D01*
X181612700Y-63239544D01*
X212005000Y-63239544D01*
X212005000Y-63506456D01*
X212057072Y-63768239D01*
X212159215Y-64014833D01*
X212307503Y-64236762D01*
X212496238Y-64425497D01*
X212718167Y-64573785D01*
X212964761Y-64675928D01*
X213226544Y-64728000D01*
X213493456Y-64728000D01*
X213755239Y-64675928D01*
X214001833Y-64573785D01*
X214223762Y-64425497D01*
X214412497Y-64236762D01*
X214560785Y-64014833D01*
X214662928Y-63768239D01*
X214715000Y-63506456D01*
X214715000Y-63239544D01*
X214695797Y-63143000D01*
X250464928Y-63143000D01*
X250464928Y-66143000D01*
X250477188Y-66267482D01*
X250513498Y-66387180D01*
X250572463Y-66497494D01*
X250651815Y-66594185D01*
X250748506Y-66673537D01*
X250858820Y-66732502D01*
X250978518Y-66768812D01*
X251103000Y-66781072D01*
X254103000Y-66781072D01*
X254227482Y-66768812D01*
X254347180Y-66732502D01*
X254457494Y-66673537D01*
X254554185Y-66594185D01*
X254633537Y-66497494D01*
X254692502Y-66387180D01*
X254728812Y-66267482D01*
X254741072Y-66143000D01*
X254741072Y-66134653D01*
X256290952Y-66134653D01*
X256446962Y-66450214D01*
X256821745Y-66641020D01*
X257226551Y-66755044D01*
X257645824Y-66787902D01*
X258063451Y-66738334D01*
X258463383Y-66608243D01*
X258759038Y-66450214D01*
X258915048Y-66134653D01*
X257603000Y-64822605D01*
X256290952Y-66134653D01*
X254741072Y-66134653D01*
X254741072Y-64685824D01*
X255458098Y-64685824D01*
X255507666Y-65103451D01*
X255637757Y-65503383D01*
X255795786Y-65799038D01*
X256111347Y-65955048D01*
X257423395Y-64643000D01*
X257782605Y-64643000D01*
X259094653Y-65955048D01*
X259410214Y-65799038D01*
X259601020Y-65424255D01*
X259715044Y-65019449D01*
X259747902Y-64600176D01*
X259698334Y-64182549D01*
X259568243Y-63782617D01*
X259410214Y-63486962D01*
X259094653Y-63330952D01*
X257782605Y-64643000D01*
X257423395Y-64643000D01*
X256111347Y-63330952D01*
X255795786Y-63486962D01*
X255604980Y-63861745D01*
X255490956Y-64266551D01*
X255458098Y-64685824D01*
X254741072Y-64685824D01*
X254741072Y-63151347D01*
X256290952Y-63151347D01*
X257603000Y-64463395D01*
X258915048Y-63151347D01*
X258759038Y-62835786D01*
X258384255Y-62644980D01*
X257979449Y-62530956D01*
X257560176Y-62498098D01*
X257142549Y-62547666D01*
X256742617Y-62677757D01*
X256446962Y-62835786D01*
X256290952Y-63151347D01*
X254741072Y-63151347D01*
X254741072Y-63143000D01*
X254728812Y-63018518D01*
X254692502Y-62898820D01*
X254633537Y-62788506D01*
X254554185Y-62691815D01*
X254457494Y-62612463D01*
X254347180Y-62553498D01*
X254227482Y-62517188D01*
X254103000Y-62504928D01*
X251103000Y-62504928D01*
X250978518Y-62517188D01*
X250858820Y-62553498D01*
X250748506Y-62612463D01*
X250651815Y-62691815D01*
X250572463Y-62788506D01*
X250513498Y-62898820D01*
X250477188Y-63018518D01*
X250464928Y-63143000D01*
X214695797Y-63143000D01*
X214662928Y-62977761D01*
X214560785Y-62731167D01*
X214412497Y-62509238D01*
X214223762Y-62320503D01*
X214001833Y-62172215D01*
X213755239Y-62070072D01*
X213493456Y-62018000D01*
X213226544Y-62018000D01*
X212964761Y-62070072D01*
X212718167Y-62172215D01*
X212496238Y-62320503D01*
X212307503Y-62509238D01*
X212159215Y-62731167D01*
X212057072Y-62977761D01*
X212005000Y-63239544D01*
X181612700Y-63239544D01*
X181351449Y-63165956D01*
X180932176Y-63133098D01*
X180514549Y-63182666D01*
X180114617Y-63312757D01*
X179818962Y-63470786D01*
X179662952Y-63786347D01*
X174269000Y-63786347D01*
X174269000Y-60067721D01*
X178840000Y-60067721D01*
X178840000Y-60488279D01*
X178922047Y-60900756D01*
X179082988Y-61289302D01*
X179316637Y-61638983D01*
X179614017Y-61936363D01*
X179963698Y-62170012D01*
X180352244Y-62330953D01*
X180764721Y-62413000D01*
X181185279Y-62413000D01*
X181597756Y-62330953D01*
X181986302Y-62170012D01*
X182335983Y-61936363D01*
X182633363Y-61638983D01*
X182867012Y-61289302D01*
X183027953Y-60900756D01*
X183110000Y-60488279D01*
X183110000Y-60067721D01*
X183027953Y-59655244D01*
X182867012Y-59266698D01*
X182633363Y-58917017D01*
X182335983Y-58619637D01*
X181986302Y-58385988D01*
X181597756Y-58225047D01*
X181185279Y-58143000D01*
X180764721Y-58143000D01*
X180352244Y-58225047D01*
X179963698Y-58385988D01*
X179614017Y-58619637D01*
X179316637Y-58917017D01*
X179082988Y-59266698D01*
X178922047Y-59655244D01*
X178840000Y-60067721D01*
X174269000Y-60067721D01*
X174269000Y-53778000D01*
X178836928Y-53778000D01*
X178836928Y-56778000D01*
X178849188Y-56902482D01*
X178885498Y-57022180D01*
X178944463Y-57132494D01*
X179023815Y-57229185D01*
X179120506Y-57308537D01*
X179230820Y-57367502D01*
X179350518Y-57403812D01*
X179475000Y-57416072D01*
X182475000Y-57416072D01*
X182599482Y-57403812D01*
X182719180Y-57367502D01*
X182829494Y-57308537D01*
X182926185Y-57229185D01*
X183005537Y-57132494D01*
X183064502Y-57022180D01*
X183100812Y-56902482D01*
X183113072Y-56778000D01*
X183113072Y-53778000D01*
X183110795Y-53754872D01*
X200457000Y-53754872D01*
X200457000Y-54195128D01*
X200542890Y-54626925D01*
X200711369Y-55033669D01*
X200955962Y-55399729D01*
X201267271Y-55711038D01*
X201633331Y-55955631D01*
X202040075Y-56124110D01*
X202471872Y-56210000D01*
X202912128Y-56210000D01*
X203343925Y-56124110D01*
X203750669Y-55955631D01*
X204116729Y-55711038D01*
X204428038Y-55399729D01*
X204672631Y-55033669D01*
X204841110Y-54626925D01*
X204927000Y-54195128D01*
X204927000Y-53754872D01*
X204841110Y-53323075D01*
X204672631Y-52916331D01*
X204428038Y-52550271D01*
X204116729Y-52238962D01*
X203750669Y-51994369D01*
X203343925Y-51825890D01*
X202912128Y-51740000D01*
X202471872Y-51740000D01*
X202040075Y-51825890D01*
X201633331Y-51994369D01*
X201267271Y-52238962D01*
X200955962Y-52550271D01*
X200711369Y-52916331D01*
X200542890Y-53323075D01*
X200457000Y-53754872D01*
X183110795Y-53754872D01*
X183100812Y-53653518D01*
X183064502Y-53533820D01*
X183005537Y-53423506D01*
X182926185Y-53326815D01*
X182829494Y-53247463D01*
X182719180Y-53188498D01*
X182599482Y-53152188D01*
X182475000Y-53139928D01*
X179475000Y-53139928D01*
X179350518Y-53152188D01*
X179230820Y-53188498D01*
X179120506Y-53247463D01*
X179023815Y-53326815D01*
X178944463Y-53423506D01*
X178885498Y-53533820D01*
X178849188Y-53653518D01*
X178836928Y-53778000D01*
X174269000Y-53778000D01*
X174269000Y-47317268D01*
X191205000Y-47317268D01*
X191205000Y-47678732D01*
X191275518Y-48033250D01*
X191413844Y-48367199D01*
X191614662Y-48667744D01*
X191870256Y-48923338D01*
X192170801Y-49124156D01*
X192504750Y-49262482D01*
X192859268Y-49333000D01*
X193220732Y-49333000D01*
X193575250Y-49262482D01*
X193909199Y-49124156D01*
X194209744Y-48923338D01*
X194465338Y-48667744D01*
X194666156Y-48367199D01*
X194804482Y-48033250D01*
X194875000Y-47678732D01*
X194875000Y-47422000D01*
X207057928Y-47422000D01*
X207057928Y-50622000D01*
X207070188Y-50746482D01*
X207106498Y-50866180D01*
X207165463Y-50976494D01*
X207244815Y-51073185D01*
X207341506Y-51152537D01*
X207451820Y-51211502D01*
X207571518Y-51247812D01*
X207696000Y-51260072D01*
X210896000Y-51260072D01*
X211020482Y-51247812D01*
X211140180Y-51211502D01*
X211250494Y-51152537D01*
X211347185Y-51073185D01*
X211426537Y-50976494D01*
X211485502Y-50866180D01*
X211521812Y-50746482D01*
X211534072Y-50622000D01*
X211534072Y-48801872D01*
X222301000Y-48801872D01*
X222301000Y-49242128D01*
X222386890Y-49673925D01*
X222555369Y-50080669D01*
X222799962Y-50446729D01*
X223111271Y-50758038D01*
X223477331Y-51002631D01*
X223884075Y-51171110D01*
X224315872Y-51257000D01*
X224756128Y-51257000D01*
X225187925Y-51171110D01*
X225594669Y-51002631D01*
X225960729Y-50758038D01*
X226272038Y-50446729D01*
X226516631Y-50080669D01*
X226685110Y-49673925D01*
X226771000Y-49242128D01*
X226771000Y-48801872D01*
X226685110Y-48370075D01*
X226516631Y-47963331D01*
X226272038Y-47597271D01*
X225960729Y-47285962D01*
X225594669Y-47041369D01*
X225187925Y-46872890D01*
X224756128Y-46787000D01*
X224315872Y-46787000D01*
X223884075Y-46872890D01*
X223477331Y-47041369D01*
X223111271Y-47285962D01*
X222799962Y-47597271D01*
X222555369Y-47963331D01*
X222386890Y-48370075D01*
X222301000Y-48801872D01*
X211534072Y-48801872D01*
X211534072Y-47422000D01*
X211521812Y-47297518D01*
X211485502Y-47177820D01*
X211426537Y-47067506D01*
X211347185Y-46970815D01*
X211250494Y-46891463D01*
X211140180Y-46832498D01*
X211020482Y-46796188D01*
X210896000Y-46783928D01*
X207696000Y-46783928D01*
X207571518Y-46796188D01*
X207451820Y-46832498D01*
X207341506Y-46891463D01*
X207244815Y-46970815D01*
X207165463Y-47067506D01*
X207106498Y-47177820D01*
X207070188Y-47297518D01*
X207057928Y-47422000D01*
X194875000Y-47422000D01*
X194875000Y-47317268D01*
X194804482Y-46962750D01*
X194666156Y-46628801D01*
X194465338Y-46328256D01*
X194209744Y-46072662D01*
X193909199Y-45871844D01*
X193575250Y-45733518D01*
X193220732Y-45663000D01*
X192859268Y-45663000D01*
X192504750Y-45733518D01*
X192170801Y-45871844D01*
X191870256Y-46072662D01*
X191614662Y-46328256D01*
X191413844Y-46628801D01*
X191275518Y-46962750D01*
X191205000Y-47317268D01*
X174269000Y-47317268D01*
X174269000Y-42411544D01*
X190923000Y-42411544D01*
X190923000Y-42678456D01*
X190975072Y-42940239D01*
X191077215Y-43186833D01*
X191225503Y-43408762D01*
X191414238Y-43597497D01*
X191636167Y-43745785D01*
X191882761Y-43847928D01*
X192144544Y-43900000D01*
X192411456Y-43900000D01*
X192673239Y-43847928D01*
X192919833Y-43745785D01*
X193141762Y-43597497D01*
X193330497Y-43408762D01*
X193478785Y-43186833D01*
X193580928Y-42940239D01*
X193633000Y-42678456D01*
X193633000Y-42411544D01*
X193580928Y-42149761D01*
X193478785Y-41903167D01*
X193330497Y-41681238D01*
X193141762Y-41492503D01*
X192919833Y-41344215D01*
X192673239Y-41242072D01*
X192411456Y-41190000D01*
X192144544Y-41190000D01*
X191882761Y-41242072D01*
X191636167Y-41344215D01*
X191414238Y-41492503D01*
X191225503Y-41681238D01*
X191077215Y-41903167D01*
X190975072Y-42149761D01*
X190923000Y-42411544D01*
X174269000Y-42411544D01*
X174269000Y-39871544D01*
X193463000Y-39871544D01*
X193463000Y-40138456D01*
X193515072Y-40400239D01*
X193617215Y-40646833D01*
X193765503Y-40868762D01*
X193954238Y-41057497D01*
X194176167Y-41205785D01*
X194422761Y-41307928D01*
X194684544Y-41360000D01*
X194951456Y-41360000D01*
X195213239Y-41307928D01*
X195459833Y-41205785D01*
X195681762Y-41057497D01*
X195870497Y-40868762D01*
X196018785Y-40646833D01*
X196120928Y-40400239D01*
X196173000Y-40138456D01*
X196173000Y-39871544D01*
X196120928Y-39609761D01*
X196018785Y-39363167D01*
X195870497Y-39141238D01*
X195681762Y-38952503D01*
X195459833Y-38804215D01*
X195213239Y-38702072D01*
X194951456Y-38650000D01*
X194684544Y-38650000D01*
X194422761Y-38702072D01*
X194176167Y-38804215D01*
X193954238Y-38952503D01*
X193765503Y-39141238D01*
X193617215Y-39363167D01*
X193515072Y-39609761D01*
X193463000Y-39871544D01*
X174269000Y-39871544D01*
X174269000Y-38400560D01*
X191522045Y-38400560D01*
X191583932Y-38636368D01*
X191825790Y-38749266D01*
X192085027Y-38812811D01*
X192351680Y-38824561D01*
X192615501Y-38784063D01*
X192866353Y-38692875D01*
X192972068Y-38636368D01*
X193033955Y-38400560D01*
X192278000Y-37644605D01*
X191522045Y-38400560D01*
X174269000Y-38400560D01*
X174269000Y-37538680D01*
X190918439Y-37538680D01*
X190958937Y-37802501D01*
X191050125Y-38053353D01*
X191106632Y-38159068D01*
X191342440Y-38220955D01*
X192098395Y-37465000D01*
X192457605Y-37465000D01*
X193213560Y-38220955D01*
X193449368Y-38159068D01*
X193562266Y-37917210D01*
X193625811Y-37657973D01*
X193637561Y-37391320D01*
X193598215Y-37135000D01*
X200453928Y-37135000D01*
X200453928Y-40335000D01*
X200466188Y-40459482D01*
X200502498Y-40579180D01*
X200561463Y-40689494D01*
X200640815Y-40786185D01*
X200737506Y-40865537D01*
X200847820Y-40924502D01*
X200967518Y-40960812D01*
X201092000Y-40973072D01*
X204292000Y-40973072D01*
X204416482Y-40960812D01*
X204536180Y-40924502D01*
X204646494Y-40865537D01*
X204743185Y-40786185D01*
X204822537Y-40689494D01*
X204881502Y-40579180D01*
X204917812Y-40459482D01*
X204930072Y-40335000D01*
X204930072Y-39421000D01*
X207565928Y-39421000D01*
X207565928Y-42621000D01*
X207578188Y-42745482D01*
X207614498Y-42865180D01*
X207673463Y-42975494D01*
X207752815Y-43072185D01*
X207849506Y-43151537D01*
X207959820Y-43210502D01*
X208079518Y-43246812D01*
X208204000Y-43259072D01*
X211404000Y-43259072D01*
X211528482Y-43246812D01*
X211648180Y-43210502D01*
X211758494Y-43151537D01*
X211855185Y-43072185D01*
X211934537Y-42975494D01*
X211993502Y-42865180D01*
X212029812Y-42745482D01*
X212042072Y-42621000D01*
X212042072Y-40800872D01*
X222809000Y-40800872D01*
X222809000Y-41241128D01*
X222894890Y-41672925D01*
X223063369Y-42079669D01*
X223307962Y-42445729D01*
X223619271Y-42757038D01*
X223985331Y-43001631D01*
X224392075Y-43170110D01*
X224823872Y-43256000D01*
X225264128Y-43256000D01*
X225695925Y-43170110D01*
X226102669Y-43001631D01*
X226468729Y-42757038D01*
X226780038Y-42445729D01*
X227024631Y-42079669D01*
X227193110Y-41672925D01*
X227279000Y-41241128D01*
X227279000Y-40800872D01*
X227193110Y-40369075D01*
X227024631Y-39962331D01*
X226780038Y-39596271D01*
X226468729Y-39284962D01*
X226102669Y-39040369D01*
X225695925Y-38871890D01*
X225264128Y-38786000D01*
X224823872Y-38786000D01*
X224392075Y-38871890D01*
X223985331Y-39040369D01*
X223619271Y-39284962D01*
X223307962Y-39596271D01*
X223063369Y-39962331D01*
X222894890Y-40369075D01*
X222809000Y-40800872D01*
X212042072Y-40800872D01*
X212042072Y-39421000D01*
X212029812Y-39296518D01*
X211993502Y-39176820D01*
X211934537Y-39066506D01*
X211855185Y-38969815D01*
X211758494Y-38890463D01*
X211648180Y-38831498D01*
X211528482Y-38795188D01*
X211404000Y-38782928D01*
X208204000Y-38782928D01*
X208079518Y-38795188D01*
X207959820Y-38831498D01*
X207849506Y-38890463D01*
X207752815Y-38969815D01*
X207673463Y-39066506D01*
X207614498Y-39176820D01*
X207578188Y-39296518D01*
X207565928Y-39421000D01*
X204930072Y-39421000D01*
X204930072Y-37135000D01*
X204917812Y-37010518D01*
X204881502Y-36890820D01*
X204822537Y-36780506D01*
X204743185Y-36683815D01*
X204646494Y-36604463D01*
X204536180Y-36545498D01*
X204416482Y-36509188D01*
X204292000Y-36496928D01*
X201092000Y-36496928D01*
X200967518Y-36509188D01*
X200847820Y-36545498D01*
X200737506Y-36604463D01*
X200640815Y-36683815D01*
X200561463Y-36780506D01*
X200502498Y-36890820D01*
X200466188Y-37010518D01*
X200453928Y-37135000D01*
X193598215Y-37135000D01*
X193597063Y-37127499D01*
X193505875Y-36876647D01*
X193449368Y-36770932D01*
X193213560Y-36709045D01*
X192457605Y-37465000D01*
X192098395Y-37465000D01*
X191342440Y-36709045D01*
X191106632Y-36770932D01*
X190993734Y-37012790D01*
X190930189Y-37272027D01*
X190918439Y-37538680D01*
X174269000Y-37538680D01*
X174269000Y-36529440D01*
X191522045Y-36529440D01*
X192278000Y-37285395D01*
X193033955Y-36529440D01*
X192972068Y-36293632D01*
X192730210Y-36180734D01*
X192470973Y-36117189D01*
X192204320Y-36105439D01*
X191940499Y-36145937D01*
X191689647Y-36237125D01*
X191583932Y-36293632D01*
X191522045Y-36529440D01*
X174269000Y-36529440D01*
X174269000Y-32537000D01*
X260579869Y-32537000D01*
X260703935Y-72238000D01*
%TA.AperFunction,Conductor*%
D19*
G36*
X260703935Y-72238000D02*
G01*
X174269000Y-72238000D01*
X174269000Y-69717268D01*
X191205000Y-69717268D01*
X191205000Y-70078732D01*
X191275518Y-70433250D01*
X191413844Y-70767199D01*
X191614662Y-71067744D01*
X191870256Y-71323338D01*
X192170801Y-71524156D01*
X192504750Y-71662482D01*
X192859268Y-71733000D01*
X193220732Y-71733000D01*
X193575250Y-71662482D01*
X193909199Y-71524156D01*
X194209744Y-71323338D01*
X194465338Y-71067744D01*
X194666156Y-70767199D01*
X194804482Y-70433250D01*
X194875000Y-70078732D01*
X194875000Y-69717268D01*
X194809616Y-69388560D01*
X212604045Y-69388560D01*
X212665932Y-69624368D01*
X212907790Y-69737266D01*
X213167027Y-69800811D01*
X213433680Y-69812561D01*
X213697501Y-69772063D01*
X213948353Y-69680875D01*
X214054068Y-69624368D01*
X214115955Y-69388560D01*
X213360000Y-68632605D01*
X212604045Y-69388560D01*
X194809616Y-69388560D01*
X194804482Y-69362750D01*
X194666156Y-69028801D01*
X194465338Y-68728256D01*
X194263762Y-68526680D01*
X212000439Y-68526680D01*
X212040937Y-68790501D01*
X212132125Y-69041353D01*
X212188632Y-69147068D01*
X212424440Y-69208955D01*
X213180395Y-68453000D01*
X213539605Y-68453000D01*
X214295560Y-69208955D01*
X214531368Y-69147068D01*
X214644266Y-68905210D01*
X214707811Y-68645973D01*
X214719561Y-68379320D01*
X214679063Y-68115499D01*
X214587875Y-67864647D01*
X214531368Y-67758932D01*
X214295560Y-67697045D01*
X213539605Y-68453000D01*
X213180395Y-68453000D01*
X212424440Y-67697045D01*
X212188632Y-67758932D01*
X212075734Y-68000790D01*
X212012189Y-68260027D01*
X212000439Y-68526680D01*
X194263762Y-68526680D01*
X194209744Y-68472662D01*
X193909199Y-68271844D01*
X193575250Y-68133518D01*
X193220732Y-68063000D01*
X192859268Y-68063000D01*
X192504750Y-68133518D01*
X192170801Y-68271844D01*
X191870256Y-68472662D01*
X191614662Y-68728256D01*
X191413844Y-69028801D01*
X191275518Y-69362750D01*
X191205000Y-69717268D01*
X174269000Y-69717268D01*
X174269000Y-67517440D01*
X212604045Y-67517440D01*
X213360000Y-68273395D01*
X214115955Y-67517440D01*
X214054068Y-67281632D01*
X213812210Y-67168734D01*
X213552973Y-67105189D01*
X213286320Y-67093439D01*
X213022499Y-67133937D01*
X212771647Y-67225125D01*
X212665932Y-67281632D01*
X212604045Y-67517440D01*
X174269000Y-67517440D01*
X174269000Y-66769653D01*
X179662952Y-66769653D01*
X179818962Y-67085214D01*
X180193745Y-67276020D01*
X180598551Y-67390044D01*
X181017824Y-67422902D01*
X181435451Y-67373334D01*
X181835383Y-67243243D01*
X182131038Y-67085214D01*
X182287048Y-66769653D01*
X180975000Y-65457605D01*
X179662952Y-66769653D01*
X174269000Y-66769653D01*
X174269000Y-65320824D01*
X178830098Y-65320824D01*
X178879666Y-65738451D01*
X179009757Y-66138383D01*
X179167786Y-66434038D01*
X179483347Y-66590048D01*
X180795395Y-65278000D01*
X181154605Y-65278000D01*
X182466653Y-66590048D01*
X182782214Y-66434038D01*
X182973020Y-66059255D01*
X183051807Y-65779544D01*
X209465000Y-65779544D01*
X209465000Y-66046456D01*
X209517072Y-66308239D01*
X209619215Y-66554833D01*
X209767503Y-66776762D01*
X209956238Y-66965497D01*
X210178167Y-67113785D01*
X210424761Y-67215928D01*
X210686544Y-67268000D01*
X210953456Y-67268000D01*
X211215239Y-67215928D01*
X211461833Y-67113785D01*
X211683762Y-66965497D01*
X211872497Y-66776762D01*
X212020785Y-66554833D01*
X212122928Y-66308239D01*
X212175000Y-66046456D01*
X212175000Y-65779544D01*
X212122928Y-65517761D01*
X212020785Y-65271167D01*
X211872497Y-65049238D01*
X211683762Y-64860503D01*
X211461833Y-64712215D01*
X211215239Y-64610072D01*
X210953456Y-64558000D01*
X210686544Y-64558000D01*
X210424761Y-64610072D01*
X210178167Y-64712215D01*
X209956238Y-64860503D01*
X209767503Y-65049238D01*
X209619215Y-65271167D01*
X209517072Y-65517761D01*
X209465000Y-65779544D01*
X183051807Y-65779544D01*
X183087044Y-65654449D01*
X183119902Y-65235176D01*
X183070334Y-64817549D01*
X182940243Y-64417617D01*
X182782214Y-64121962D01*
X182466653Y-63965952D01*
X181154605Y-65278000D01*
X180795395Y-65278000D01*
X179483347Y-63965952D01*
X179167786Y-64121962D01*
X178976980Y-64496745D01*
X178862956Y-64901551D01*
X178830098Y-65320824D01*
X174269000Y-65320824D01*
X174269000Y-63786347D01*
X179662952Y-63786347D01*
X180975000Y-65098395D01*
X182287048Y-63786347D01*
X182131038Y-63470786D01*
X181756255Y-63279980D01*
X181612700Y-63239544D01*
X212005000Y-63239544D01*
X212005000Y-63506456D01*
X212057072Y-63768239D01*
X212159215Y-64014833D01*
X212307503Y-64236762D01*
X212496238Y-64425497D01*
X212718167Y-64573785D01*
X212964761Y-64675928D01*
X213226544Y-64728000D01*
X213493456Y-64728000D01*
X213755239Y-64675928D01*
X214001833Y-64573785D01*
X214223762Y-64425497D01*
X214412497Y-64236762D01*
X214560785Y-64014833D01*
X214662928Y-63768239D01*
X214715000Y-63506456D01*
X214715000Y-63239544D01*
X214695797Y-63143000D01*
X250464928Y-63143000D01*
X250464928Y-66143000D01*
X250477188Y-66267482D01*
X250513498Y-66387180D01*
X250572463Y-66497494D01*
X250651815Y-66594185D01*
X250748506Y-66673537D01*
X250858820Y-66732502D01*
X250978518Y-66768812D01*
X251103000Y-66781072D01*
X254103000Y-66781072D01*
X254227482Y-66768812D01*
X254347180Y-66732502D01*
X254457494Y-66673537D01*
X254554185Y-66594185D01*
X254633537Y-66497494D01*
X254692502Y-66387180D01*
X254728812Y-66267482D01*
X254741072Y-66143000D01*
X254741072Y-66134653D01*
X256290952Y-66134653D01*
X256446962Y-66450214D01*
X256821745Y-66641020D01*
X257226551Y-66755044D01*
X257645824Y-66787902D01*
X258063451Y-66738334D01*
X258463383Y-66608243D01*
X258759038Y-66450214D01*
X258915048Y-66134653D01*
X257603000Y-64822605D01*
X256290952Y-66134653D01*
X254741072Y-66134653D01*
X254741072Y-64685824D01*
X255458098Y-64685824D01*
X255507666Y-65103451D01*
X255637757Y-65503383D01*
X255795786Y-65799038D01*
X256111347Y-65955048D01*
X257423395Y-64643000D01*
X257782605Y-64643000D01*
X259094653Y-65955048D01*
X259410214Y-65799038D01*
X259601020Y-65424255D01*
X259715044Y-65019449D01*
X259747902Y-64600176D01*
X259698334Y-64182549D01*
X259568243Y-63782617D01*
X259410214Y-63486962D01*
X259094653Y-63330952D01*
X257782605Y-64643000D01*
X257423395Y-64643000D01*
X256111347Y-63330952D01*
X255795786Y-63486962D01*
X255604980Y-63861745D01*
X255490956Y-64266551D01*
X255458098Y-64685824D01*
X254741072Y-64685824D01*
X254741072Y-63151347D01*
X256290952Y-63151347D01*
X257603000Y-64463395D01*
X258915048Y-63151347D01*
X258759038Y-62835786D01*
X258384255Y-62644980D01*
X257979449Y-62530956D01*
X257560176Y-62498098D01*
X257142549Y-62547666D01*
X256742617Y-62677757D01*
X256446962Y-62835786D01*
X256290952Y-63151347D01*
X254741072Y-63151347D01*
X254741072Y-63143000D01*
X254728812Y-63018518D01*
X254692502Y-62898820D01*
X254633537Y-62788506D01*
X254554185Y-62691815D01*
X254457494Y-62612463D01*
X254347180Y-62553498D01*
X254227482Y-62517188D01*
X254103000Y-62504928D01*
X251103000Y-62504928D01*
X250978518Y-62517188D01*
X250858820Y-62553498D01*
X250748506Y-62612463D01*
X250651815Y-62691815D01*
X250572463Y-62788506D01*
X250513498Y-62898820D01*
X250477188Y-63018518D01*
X250464928Y-63143000D01*
X214695797Y-63143000D01*
X214662928Y-62977761D01*
X214560785Y-62731167D01*
X214412497Y-62509238D01*
X214223762Y-62320503D01*
X214001833Y-62172215D01*
X213755239Y-62070072D01*
X213493456Y-62018000D01*
X213226544Y-62018000D01*
X212964761Y-62070072D01*
X212718167Y-62172215D01*
X212496238Y-62320503D01*
X212307503Y-62509238D01*
X212159215Y-62731167D01*
X212057072Y-62977761D01*
X212005000Y-63239544D01*
X181612700Y-63239544D01*
X181351449Y-63165956D01*
X180932176Y-63133098D01*
X180514549Y-63182666D01*
X180114617Y-63312757D01*
X179818962Y-63470786D01*
X179662952Y-63786347D01*
X174269000Y-63786347D01*
X174269000Y-60067721D01*
X178840000Y-60067721D01*
X178840000Y-60488279D01*
X178922047Y-60900756D01*
X179082988Y-61289302D01*
X179316637Y-61638983D01*
X179614017Y-61936363D01*
X179963698Y-62170012D01*
X180352244Y-62330953D01*
X180764721Y-62413000D01*
X181185279Y-62413000D01*
X181597756Y-62330953D01*
X181986302Y-62170012D01*
X182335983Y-61936363D01*
X182633363Y-61638983D01*
X182867012Y-61289302D01*
X183027953Y-60900756D01*
X183110000Y-60488279D01*
X183110000Y-60067721D01*
X183027953Y-59655244D01*
X182867012Y-59266698D01*
X182633363Y-58917017D01*
X182335983Y-58619637D01*
X181986302Y-58385988D01*
X181597756Y-58225047D01*
X181185279Y-58143000D01*
X180764721Y-58143000D01*
X180352244Y-58225047D01*
X179963698Y-58385988D01*
X179614017Y-58619637D01*
X179316637Y-58917017D01*
X179082988Y-59266698D01*
X178922047Y-59655244D01*
X178840000Y-60067721D01*
X174269000Y-60067721D01*
X174269000Y-53778000D01*
X178836928Y-53778000D01*
X178836928Y-56778000D01*
X178849188Y-56902482D01*
X178885498Y-57022180D01*
X178944463Y-57132494D01*
X179023815Y-57229185D01*
X179120506Y-57308537D01*
X179230820Y-57367502D01*
X179350518Y-57403812D01*
X179475000Y-57416072D01*
X182475000Y-57416072D01*
X182599482Y-57403812D01*
X182719180Y-57367502D01*
X182829494Y-57308537D01*
X182926185Y-57229185D01*
X183005537Y-57132494D01*
X183064502Y-57022180D01*
X183100812Y-56902482D01*
X183113072Y-56778000D01*
X183113072Y-53778000D01*
X183110795Y-53754872D01*
X200457000Y-53754872D01*
X200457000Y-54195128D01*
X200542890Y-54626925D01*
X200711369Y-55033669D01*
X200955962Y-55399729D01*
X201267271Y-55711038D01*
X201633331Y-55955631D01*
X202040075Y-56124110D01*
X202471872Y-56210000D01*
X202912128Y-56210000D01*
X203343925Y-56124110D01*
X203750669Y-55955631D01*
X204116729Y-55711038D01*
X204428038Y-55399729D01*
X204672631Y-55033669D01*
X204841110Y-54626925D01*
X204927000Y-54195128D01*
X204927000Y-53754872D01*
X204841110Y-53323075D01*
X204672631Y-52916331D01*
X204428038Y-52550271D01*
X204116729Y-52238962D01*
X203750669Y-51994369D01*
X203343925Y-51825890D01*
X202912128Y-51740000D01*
X202471872Y-51740000D01*
X202040075Y-51825890D01*
X201633331Y-51994369D01*
X201267271Y-52238962D01*
X200955962Y-52550271D01*
X200711369Y-52916331D01*
X200542890Y-53323075D01*
X200457000Y-53754872D01*
X183110795Y-53754872D01*
X183100812Y-53653518D01*
X183064502Y-53533820D01*
X183005537Y-53423506D01*
X182926185Y-53326815D01*
X182829494Y-53247463D01*
X182719180Y-53188498D01*
X182599482Y-53152188D01*
X182475000Y-53139928D01*
X179475000Y-53139928D01*
X179350518Y-53152188D01*
X179230820Y-53188498D01*
X179120506Y-53247463D01*
X179023815Y-53326815D01*
X178944463Y-53423506D01*
X178885498Y-53533820D01*
X178849188Y-53653518D01*
X178836928Y-53778000D01*
X174269000Y-53778000D01*
X174269000Y-47317268D01*
X191205000Y-47317268D01*
X191205000Y-47678732D01*
X191275518Y-48033250D01*
X191413844Y-48367199D01*
X191614662Y-48667744D01*
X191870256Y-48923338D01*
X192170801Y-49124156D01*
X192504750Y-49262482D01*
X192859268Y-49333000D01*
X193220732Y-49333000D01*
X193575250Y-49262482D01*
X193909199Y-49124156D01*
X194209744Y-48923338D01*
X194465338Y-48667744D01*
X194666156Y-48367199D01*
X194804482Y-48033250D01*
X194875000Y-47678732D01*
X194875000Y-47422000D01*
X207057928Y-47422000D01*
X207057928Y-50622000D01*
X207070188Y-50746482D01*
X207106498Y-50866180D01*
X207165463Y-50976494D01*
X207244815Y-51073185D01*
X207341506Y-51152537D01*
X207451820Y-51211502D01*
X207571518Y-51247812D01*
X207696000Y-51260072D01*
X210896000Y-51260072D01*
X211020482Y-51247812D01*
X211140180Y-51211502D01*
X211250494Y-51152537D01*
X211347185Y-51073185D01*
X211426537Y-50976494D01*
X211485502Y-50866180D01*
X211521812Y-50746482D01*
X211534072Y-50622000D01*
X211534072Y-48801872D01*
X222301000Y-48801872D01*
X222301000Y-49242128D01*
X222386890Y-49673925D01*
X222555369Y-50080669D01*
X222799962Y-50446729D01*
X223111271Y-50758038D01*
X223477331Y-51002631D01*
X223884075Y-51171110D01*
X224315872Y-51257000D01*
X224756128Y-51257000D01*
X225187925Y-51171110D01*
X225594669Y-51002631D01*
X225960729Y-50758038D01*
X226272038Y-50446729D01*
X226516631Y-50080669D01*
X226685110Y-49673925D01*
X226771000Y-49242128D01*
X226771000Y-48801872D01*
X226685110Y-48370075D01*
X226516631Y-47963331D01*
X226272038Y-47597271D01*
X225960729Y-47285962D01*
X225594669Y-47041369D01*
X225187925Y-46872890D01*
X224756128Y-46787000D01*
X224315872Y-46787000D01*
X223884075Y-46872890D01*
X223477331Y-47041369D01*
X223111271Y-47285962D01*
X222799962Y-47597271D01*
X222555369Y-47963331D01*
X222386890Y-48370075D01*
X222301000Y-48801872D01*
X211534072Y-48801872D01*
X211534072Y-47422000D01*
X211521812Y-47297518D01*
X211485502Y-47177820D01*
X211426537Y-47067506D01*
X211347185Y-46970815D01*
X211250494Y-46891463D01*
X211140180Y-46832498D01*
X211020482Y-46796188D01*
X210896000Y-46783928D01*
X207696000Y-46783928D01*
X207571518Y-46796188D01*
X207451820Y-46832498D01*
X207341506Y-46891463D01*
X207244815Y-46970815D01*
X207165463Y-47067506D01*
X207106498Y-47177820D01*
X207070188Y-47297518D01*
X207057928Y-47422000D01*
X194875000Y-47422000D01*
X194875000Y-47317268D01*
X194804482Y-46962750D01*
X194666156Y-46628801D01*
X194465338Y-46328256D01*
X194209744Y-46072662D01*
X193909199Y-45871844D01*
X193575250Y-45733518D01*
X193220732Y-45663000D01*
X192859268Y-45663000D01*
X192504750Y-45733518D01*
X192170801Y-45871844D01*
X191870256Y-46072662D01*
X191614662Y-46328256D01*
X191413844Y-46628801D01*
X191275518Y-46962750D01*
X191205000Y-47317268D01*
X174269000Y-47317268D01*
X174269000Y-42411544D01*
X190923000Y-42411544D01*
X190923000Y-42678456D01*
X190975072Y-42940239D01*
X191077215Y-43186833D01*
X191225503Y-43408762D01*
X191414238Y-43597497D01*
X191636167Y-43745785D01*
X191882761Y-43847928D01*
X192144544Y-43900000D01*
X192411456Y-43900000D01*
X192673239Y-43847928D01*
X192919833Y-43745785D01*
X193141762Y-43597497D01*
X193330497Y-43408762D01*
X193478785Y-43186833D01*
X193580928Y-42940239D01*
X193633000Y-42678456D01*
X193633000Y-42411544D01*
X193580928Y-42149761D01*
X193478785Y-41903167D01*
X193330497Y-41681238D01*
X193141762Y-41492503D01*
X192919833Y-41344215D01*
X192673239Y-41242072D01*
X192411456Y-41190000D01*
X192144544Y-41190000D01*
X191882761Y-41242072D01*
X191636167Y-41344215D01*
X191414238Y-41492503D01*
X191225503Y-41681238D01*
X191077215Y-41903167D01*
X190975072Y-42149761D01*
X190923000Y-42411544D01*
X174269000Y-42411544D01*
X174269000Y-39871544D01*
X193463000Y-39871544D01*
X193463000Y-40138456D01*
X193515072Y-40400239D01*
X193617215Y-40646833D01*
X193765503Y-40868762D01*
X193954238Y-41057497D01*
X194176167Y-41205785D01*
X194422761Y-41307928D01*
X194684544Y-41360000D01*
X194951456Y-41360000D01*
X195213239Y-41307928D01*
X195459833Y-41205785D01*
X195681762Y-41057497D01*
X195870497Y-40868762D01*
X196018785Y-40646833D01*
X196120928Y-40400239D01*
X196173000Y-40138456D01*
X196173000Y-39871544D01*
X196120928Y-39609761D01*
X196018785Y-39363167D01*
X195870497Y-39141238D01*
X195681762Y-38952503D01*
X195459833Y-38804215D01*
X195213239Y-38702072D01*
X194951456Y-38650000D01*
X194684544Y-38650000D01*
X194422761Y-38702072D01*
X194176167Y-38804215D01*
X193954238Y-38952503D01*
X193765503Y-39141238D01*
X193617215Y-39363167D01*
X193515072Y-39609761D01*
X193463000Y-39871544D01*
X174269000Y-39871544D01*
X174269000Y-38400560D01*
X191522045Y-38400560D01*
X191583932Y-38636368D01*
X191825790Y-38749266D01*
X192085027Y-38812811D01*
X192351680Y-38824561D01*
X192615501Y-38784063D01*
X192866353Y-38692875D01*
X192972068Y-38636368D01*
X193033955Y-38400560D01*
X192278000Y-37644605D01*
X191522045Y-38400560D01*
X174269000Y-38400560D01*
X174269000Y-37538680D01*
X190918439Y-37538680D01*
X190958937Y-37802501D01*
X191050125Y-38053353D01*
X191106632Y-38159068D01*
X191342440Y-38220955D01*
X192098395Y-37465000D01*
X192457605Y-37465000D01*
X193213560Y-38220955D01*
X193449368Y-38159068D01*
X193562266Y-37917210D01*
X193625811Y-37657973D01*
X193637561Y-37391320D01*
X193598215Y-37135000D01*
X200453928Y-37135000D01*
X200453928Y-40335000D01*
X200466188Y-40459482D01*
X200502498Y-40579180D01*
X200561463Y-40689494D01*
X200640815Y-40786185D01*
X200737506Y-40865537D01*
X200847820Y-40924502D01*
X200967518Y-40960812D01*
X201092000Y-40973072D01*
X204292000Y-40973072D01*
X204416482Y-40960812D01*
X204536180Y-40924502D01*
X204646494Y-40865537D01*
X204743185Y-40786185D01*
X204822537Y-40689494D01*
X204881502Y-40579180D01*
X204917812Y-40459482D01*
X204930072Y-40335000D01*
X204930072Y-39421000D01*
X207565928Y-39421000D01*
X207565928Y-42621000D01*
X207578188Y-42745482D01*
X207614498Y-42865180D01*
X207673463Y-42975494D01*
X207752815Y-43072185D01*
X207849506Y-43151537D01*
X207959820Y-43210502D01*
X208079518Y-43246812D01*
X208204000Y-43259072D01*
X211404000Y-43259072D01*
X211528482Y-43246812D01*
X211648180Y-43210502D01*
X211758494Y-43151537D01*
X211855185Y-43072185D01*
X211934537Y-42975494D01*
X211993502Y-42865180D01*
X212029812Y-42745482D01*
X212042072Y-42621000D01*
X212042072Y-40800872D01*
X222809000Y-40800872D01*
X222809000Y-41241128D01*
X222894890Y-41672925D01*
X223063369Y-42079669D01*
X223307962Y-42445729D01*
X223619271Y-42757038D01*
X223985331Y-43001631D01*
X224392075Y-43170110D01*
X224823872Y-43256000D01*
X225264128Y-43256000D01*
X225695925Y-43170110D01*
X226102669Y-43001631D01*
X226468729Y-42757038D01*
X226780038Y-42445729D01*
X227024631Y-42079669D01*
X227193110Y-41672925D01*
X227279000Y-41241128D01*
X227279000Y-40800872D01*
X227193110Y-40369075D01*
X227024631Y-39962331D01*
X226780038Y-39596271D01*
X226468729Y-39284962D01*
X226102669Y-39040369D01*
X225695925Y-38871890D01*
X225264128Y-38786000D01*
X224823872Y-38786000D01*
X224392075Y-38871890D01*
X223985331Y-39040369D01*
X223619271Y-39284962D01*
X223307962Y-39596271D01*
X223063369Y-39962331D01*
X222894890Y-40369075D01*
X222809000Y-40800872D01*
X212042072Y-40800872D01*
X212042072Y-39421000D01*
X212029812Y-39296518D01*
X211993502Y-39176820D01*
X211934537Y-39066506D01*
X211855185Y-38969815D01*
X211758494Y-38890463D01*
X211648180Y-38831498D01*
X211528482Y-38795188D01*
X211404000Y-38782928D01*
X208204000Y-38782928D01*
X208079518Y-38795188D01*
X207959820Y-38831498D01*
X207849506Y-38890463D01*
X207752815Y-38969815D01*
X207673463Y-39066506D01*
X207614498Y-39176820D01*
X207578188Y-39296518D01*
X207565928Y-39421000D01*
X204930072Y-39421000D01*
X204930072Y-37135000D01*
X204917812Y-37010518D01*
X204881502Y-36890820D01*
X204822537Y-36780506D01*
X204743185Y-36683815D01*
X204646494Y-36604463D01*
X204536180Y-36545498D01*
X204416482Y-36509188D01*
X204292000Y-36496928D01*
X201092000Y-36496928D01*
X200967518Y-36509188D01*
X200847820Y-36545498D01*
X200737506Y-36604463D01*
X200640815Y-36683815D01*
X200561463Y-36780506D01*
X200502498Y-36890820D01*
X200466188Y-37010518D01*
X200453928Y-37135000D01*
X193598215Y-37135000D01*
X193597063Y-37127499D01*
X193505875Y-36876647D01*
X193449368Y-36770932D01*
X193213560Y-36709045D01*
X192457605Y-37465000D01*
X192098395Y-37465000D01*
X191342440Y-36709045D01*
X191106632Y-36770932D01*
X190993734Y-37012790D01*
X190930189Y-37272027D01*
X190918439Y-37538680D01*
X174269000Y-37538680D01*
X174269000Y-36529440D01*
X191522045Y-36529440D01*
X192278000Y-37285395D01*
X193033955Y-36529440D01*
X192972068Y-36293632D01*
X192730210Y-36180734D01*
X192470973Y-36117189D01*
X192204320Y-36105439D01*
X191940499Y-36145937D01*
X191689647Y-36237125D01*
X191583932Y-36293632D01*
X191522045Y-36529440D01*
X174269000Y-36529440D01*
X174269000Y-32537000D01*
X260579869Y-32537000D01*
X260703935Y-72238000D01*
G37*
%TD.AperFunction*%
%TD*%
M02*
