%TF.GenerationSoftware,KiCad,Pcbnew,(5.1.10)-1*%
%TF.CreationDate,2021-08-31T13:48:21-07:00*%
%TF.ProjectId,Power Supply,506f7765-7220-4537-9570-706c792e6b69,rev?*%
%TF.SameCoordinates,Original*%
%TF.FileFunction,Legend,Top*%
%TF.FilePolarity,Positive*%
%FSLAX46Y46*%
G04 Gerber Fmt 4.6, Leading zero omitted, Abs format (unit mm)*
G04 Created by KiCad (PCBNEW (5.1.10)-1) date 2021-08-31 13:48:21*
%MOMM*%
%LPD*%
G01*
G04 APERTURE LIST*
%ADD10C,0.300000*%
%ADD11C,0.100000*%
%ADD12C,0.203200*%
%ADD13C,0.120000*%
%ADD14C,0.127000*%
%ADD15C,0.200000*%
%ADD16C,0.150000*%
G04 APERTURE END LIST*
D10*
X178193285Y-69790571D02*
X178479000Y-69790571D01*
X178621857Y-69862000D01*
X178764714Y-70004857D01*
X178836142Y-70290571D01*
X178836142Y-70790571D01*
X178764714Y-71076285D01*
X178621857Y-71219142D01*
X178479000Y-71290571D01*
X178193285Y-71290571D01*
X178050428Y-71219142D01*
X177907571Y-71076285D01*
X177836142Y-70790571D01*
X177836142Y-70290571D01*
X177907571Y-70004857D01*
X178050428Y-69862000D01*
X178193285Y-69790571D01*
X180121857Y-70290571D02*
X180121857Y-71290571D01*
X179479000Y-70290571D02*
X179479000Y-71076285D01*
X179550428Y-71219142D01*
X179693285Y-71290571D01*
X179907571Y-71290571D01*
X180050428Y-71219142D01*
X180121857Y-71147714D01*
X180621857Y-70290571D02*
X181193285Y-70290571D01*
X180836142Y-69790571D02*
X180836142Y-71076285D01*
X180907571Y-71219142D01*
X181050428Y-71290571D01*
X181193285Y-71290571D01*
X181693285Y-70290571D02*
X181693285Y-71790571D01*
X181693285Y-70362000D02*
X181836142Y-70290571D01*
X182121857Y-70290571D01*
X182264714Y-70362000D01*
X182336142Y-70433428D01*
X182407571Y-70576285D01*
X182407571Y-71004857D01*
X182336142Y-71147714D01*
X182264714Y-71219142D01*
X182121857Y-71290571D01*
X181836142Y-71290571D01*
X181693285Y-71219142D01*
X183693285Y-70290571D02*
X183693285Y-71290571D01*
X183050428Y-70290571D02*
X183050428Y-71076285D01*
X183121857Y-71219142D01*
X183264714Y-71290571D01*
X183479000Y-71290571D01*
X183621857Y-71219142D01*
X183693285Y-71147714D01*
X184193285Y-70290571D02*
X184764714Y-70290571D01*
X184407571Y-69790571D02*
X184407571Y-71076285D01*
X184479000Y-71219142D01*
X184621857Y-71290571D01*
X184764714Y-71290571D01*
X252424714Y-56685571D02*
X252424714Y-55185571D01*
X253139000Y-55685571D02*
X253139000Y-56685571D01*
X253139000Y-55828428D02*
X253210428Y-55757000D01*
X253353285Y-55685571D01*
X253567571Y-55685571D01*
X253710428Y-55757000D01*
X253781857Y-55899857D01*
X253781857Y-56685571D01*
X254496142Y-55685571D02*
X254496142Y-57185571D01*
X254496142Y-55757000D02*
X254639000Y-55685571D01*
X254924714Y-55685571D01*
X255067571Y-55757000D01*
X255139000Y-55828428D01*
X255210428Y-55971285D01*
X255210428Y-56399857D01*
X255139000Y-56542714D01*
X255067571Y-56614142D01*
X254924714Y-56685571D01*
X254639000Y-56685571D01*
X254496142Y-56614142D01*
X256496142Y-55685571D02*
X256496142Y-56685571D01*
X255853285Y-55685571D02*
X255853285Y-56471285D01*
X255924714Y-56614142D01*
X256067571Y-56685571D01*
X256281857Y-56685571D01*
X256424714Y-56614142D01*
X256496142Y-56542714D01*
X256996142Y-55685571D02*
X257567571Y-55685571D01*
X257210428Y-55185571D02*
X257210428Y-56471285D01*
X257281857Y-56614142D01*
X257424714Y-56685571D01*
X257567571Y-56685571D01*
D11*
%TO.C,U3*%
X202166100Y-64693800D02*
G75*
G03*
X202166100Y-64693800I-325000J0D01*
G01*
D12*
X201156680Y-63946580D02*
X201156680Y-66746580D01*
X205456680Y-63946580D02*
X201156680Y-63946580D01*
X205456680Y-66746580D02*
X205456680Y-63946580D01*
X201156680Y-66746580D02*
X205456680Y-66746580D01*
D13*
%TO.C,U2*%
X232480000Y-70998000D02*
X231380000Y-70998000D01*
X232480000Y-71268000D02*
X232480000Y-70998000D01*
X233980000Y-71268000D02*
X232480000Y-71268000D01*
X232480000Y-64638000D02*
X229650000Y-64638000D01*
X232480000Y-64368000D02*
X232480000Y-64638000D01*
X233980000Y-64368000D02*
X232480000Y-64368000D01*
D14*
%TO.C,U1*%
X249127000Y-53467000D02*
X251412000Y-53467000D01*
X249127000Y-43307000D02*
X249127000Y-53467000D01*
X251412000Y-43307000D02*
X249127000Y-43307000D01*
D15*
X242932000Y-44987000D02*
G75*
G03*
X242932000Y-44987000I-100000J0D01*
G01*
D13*
%TO.C,Current*%
X212865000Y-69388000D02*
X209760000Y-69388000D01*
X214500000Y-69388000D02*
X213855000Y-69388000D01*
X212865000Y-62438000D02*
X209760000Y-62438000D01*
X214500000Y-62438000D02*
X213855000Y-62438000D01*
X209760000Y-62438000D02*
X209760000Y-69388000D01*
X214500000Y-62438000D02*
X214500000Y-69388000D01*
%TO.C,Voltage*%
X192773000Y-36530000D02*
X195878000Y-36530000D01*
X191138000Y-36530000D02*
X191783000Y-36530000D01*
X192773000Y-43480000D02*
X195878000Y-43480000D01*
X191138000Y-43480000D02*
X191783000Y-43480000D01*
X195878000Y-43480000D02*
X195878000Y-36530000D01*
X191138000Y-43480000D02*
X191138000Y-36530000D01*
%TO.C,R7*%
X203584436Y-70458000D02*
X204038564Y-70458000D01*
X203584436Y-68988000D02*
X204038564Y-68988000D01*
%TO.C,R6*%
X200633000Y-70839064D02*
X200633000Y-70384936D01*
X199163000Y-70839064D02*
X199163000Y-70384936D01*
%TO.C,R5*%
X196360000Y-48578000D02*
X194480000Y-48578000D01*
X196360000Y-68818000D02*
X196360000Y-48578000D01*
X194480000Y-68818000D02*
X196360000Y-68818000D01*
X189720000Y-48578000D02*
X191600000Y-48578000D01*
X189720000Y-68818000D02*
X189720000Y-48578000D01*
X191600000Y-68818000D02*
X189720000Y-68818000D01*
%TO.C,R4*%
X200456436Y-61822000D02*
X200910564Y-61822000D01*
X200456436Y-60352000D02*
X200910564Y-60352000D01*
%TO.C,R3*%
X198273936Y-58393000D02*
X198728064Y-58393000D01*
X198273936Y-56923000D02*
X198728064Y-56923000D01*
%TO.C,R2*%
X245113436Y-37946000D02*
X245567564Y-37946000D01*
X245113436Y-36476000D02*
X245567564Y-36476000D01*
%TO.C,R1*%
X248131064Y-40667000D02*
X247676936Y-40667000D01*
X248131064Y-42137000D02*
X247676936Y-42137000D01*
%TO.C,L2*%
X242044000Y-38155000D02*
X242044000Y-33635000D01*
X242044000Y-46375000D02*
X242044000Y-41855000D01*
X242044000Y-33635000D02*
X229304000Y-33635000D01*
X229304000Y-38155000D02*
X229304000Y-33635000D01*
X229304000Y-46375000D02*
X229304000Y-41855000D01*
X242044000Y-46375000D02*
X229304000Y-46375000D01*
X242424000Y-46755000D02*
X239424000Y-46755000D01*
X242424000Y-43755000D02*
X242424000Y-46755000D01*
%TO.C,L1*%
X237562000Y-61399000D02*
X242082000Y-61399000D01*
X229342000Y-61399000D02*
X233862000Y-61399000D01*
X242082000Y-61399000D02*
X242082000Y-48659000D01*
X237562000Y-48659000D02*
X242082000Y-48659000D01*
X229342000Y-48659000D02*
X233862000Y-48659000D01*
X229342000Y-61399000D02*
X229342000Y-48659000D01*
X228962000Y-61779000D02*
X228962000Y-58779000D01*
X231962000Y-61779000D02*
X228962000Y-61779000D01*
%TO.C,GND    -     +*%
X187095000Y-52658000D02*
X174355000Y-52658000D01*
X174355000Y-52658000D02*
X174355000Y-67898000D01*
X187095000Y-67898000D02*
X174355000Y-67898000D01*
X187095000Y-52658000D02*
X187095000Y-67898000D01*
X187095000Y-52658000D02*
X174355000Y-52658000D01*
X174355000Y-52658000D02*
X174355000Y-67898000D01*
X187095000Y-67898000D02*
X174355000Y-67898000D01*
X187095000Y-52658000D02*
X187095000Y-67898000D01*
X187475000Y-52278000D02*
X187475000Y-55278000D01*
X184475000Y-52278000D02*
X187475000Y-52278000D01*
%TO.C,+     -*%
X249983000Y-58523000D02*
X249983000Y-71263000D01*
X249983000Y-71263000D02*
X260223000Y-71263000D01*
X260223000Y-58523000D02*
X260223000Y-71263000D01*
X249983000Y-58523000D02*
X260223000Y-58523000D01*
X249983000Y-58523000D02*
X249983000Y-71263000D01*
X249983000Y-71263000D02*
X260223000Y-71263000D01*
X260223000Y-58523000D02*
X260223000Y-71263000D01*
X249983000Y-58523000D02*
X260223000Y-58523000D01*
X249603000Y-58143000D02*
X252603000Y-58143000D01*
X249603000Y-61143000D02*
X249603000Y-58143000D01*
%TO.C,F1*%
X245127545Y-62378000D02*
X246108455Y-62378000D01*
X245127545Y-60558000D02*
X246108455Y-60558000D01*
%TO.C,D4*%
X205412000Y-42910000D02*
X199972000Y-42910000D01*
X205412000Y-43150000D02*
X199972000Y-43150000D01*
X205412000Y-43030000D02*
X199972000Y-43030000D01*
X202692000Y-52135000D02*
X202692000Y-51225000D01*
X202692000Y-40575000D02*
X202692000Y-41485000D01*
X205412000Y-51225000D02*
X205412000Y-41485000D01*
X199972000Y-51225000D02*
X205412000Y-51225000D01*
X199972000Y-41485000D02*
X199972000Y-51225000D01*
X205412000Y-41485000D02*
X199972000Y-41485000D01*
%TO.C,D3*%
X213979000Y-38301000D02*
X213979000Y-43741000D01*
X214219000Y-38301000D02*
X214219000Y-43741000D01*
X214099000Y-38301000D02*
X214099000Y-43741000D01*
X223204000Y-41021000D02*
X222294000Y-41021000D01*
X211644000Y-41021000D02*
X212554000Y-41021000D01*
X222294000Y-38301000D02*
X212554000Y-38301000D01*
X222294000Y-43741000D02*
X222294000Y-38301000D01*
X212554000Y-43741000D02*
X222294000Y-43741000D01*
X212554000Y-38301000D02*
X212554000Y-43741000D01*
%TO.C,D2*%
X213471000Y-46302000D02*
X213471000Y-51742000D01*
X213711000Y-46302000D02*
X213711000Y-51742000D01*
X213591000Y-46302000D02*
X213591000Y-51742000D01*
X222696000Y-49022000D02*
X221786000Y-49022000D01*
X211136000Y-49022000D02*
X212046000Y-49022000D01*
X221786000Y-46302000D02*
X212046000Y-46302000D01*
X221786000Y-51742000D02*
X221786000Y-46302000D01*
X212046000Y-51742000D02*
X221786000Y-51742000D01*
X212046000Y-46302000D02*
X212046000Y-51742000D01*
%TO.C,D1*%
X208281500Y-59223000D02*
X216966500Y-59223000D01*
X208281500Y-53553000D02*
X208281500Y-59223000D01*
X216966500Y-53553000D02*
X208281500Y-53553000D01*
%TO.C,C6*%
X220793437Y-64024500D02*
X219729000Y-65088937D01*
X225484563Y-64024500D02*
X226549000Y-65088937D01*
X225484563Y-64024500D02*
X224199000Y-64024500D01*
X220793437Y-64024500D02*
X222079000Y-64024500D01*
X219729000Y-65088937D02*
X219729000Y-70844500D01*
X226549000Y-65088937D02*
X226549000Y-70844500D01*
X226549000Y-70844500D02*
X224199000Y-70844500D01*
X219729000Y-70844500D02*
X222079000Y-70844500D01*
%TO.C,C5*%
X218413000Y-62872252D02*
X218413000Y-62349748D01*
X216943000Y-62872252D02*
X216943000Y-62349748D01*
%TO.C,C4*%
X183955563Y-43671500D02*
X185020000Y-42607063D01*
X179264437Y-43671500D02*
X178200000Y-42607063D01*
X179264437Y-43671500D02*
X180550000Y-43671500D01*
X183955563Y-43671500D02*
X182670000Y-43671500D01*
X185020000Y-42607063D02*
X185020000Y-36851500D01*
X178200000Y-42607063D02*
X178200000Y-36851500D01*
X178200000Y-36851500D02*
X180550000Y-36851500D01*
X185020000Y-36851500D02*
X182670000Y-36851500D01*
%TO.C,C3*%
X252803252Y-36349000D02*
X252280748Y-36349000D01*
X252803252Y-37819000D02*
X252280748Y-37819000D01*
%TO.C,C2*%
X221174437Y-53994000D02*
X220110000Y-55058437D01*
X225865563Y-53994000D02*
X226930000Y-55058437D01*
X225865563Y-53994000D02*
X224580000Y-53994000D01*
X221174437Y-53994000D02*
X222460000Y-53994000D01*
X220110000Y-55058437D02*
X220110000Y-60814000D01*
X226930000Y-55058437D02*
X226930000Y-60814000D01*
X226930000Y-60814000D02*
X224580000Y-60814000D01*
X220110000Y-60814000D02*
X222460000Y-60814000D01*
%TO.C,C1*%
X246226000Y-68780252D02*
X246226000Y-68257748D01*
X244756000Y-68780252D02*
X244756000Y-68257748D01*
%TO.C,U3*%
D16*
X203335674Y-59866891D02*
X203335674Y-62421486D01*
X203485945Y-62722027D01*
X203636215Y-62872297D01*
X203936756Y-63022568D01*
X204537837Y-63022568D01*
X204838378Y-62872297D01*
X204988648Y-62722027D01*
X205138918Y-62421486D01*
X205138918Y-59866891D01*
X206341081Y-59866891D02*
X208294595Y-59866891D01*
X207242703Y-61069053D01*
X207693514Y-61069053D01*
X207994055Y-61219324D01*
X208144325Y-61369594D01*
X208294595Y-61670135D01*
X208294595Y-62421486D01*
X208144325Y-62722027D01*
X207994055Y-62872297D01*
X207693514Y-63022568D01*
X206791892Y-63022568D01*
X206491351Y-62872297D01*
X206341081Y-62722027D01*
%TO.C,U2*%
X234188095Y-62770380D02*
X234188095Y-63579904D01*
X234235714Y-63675142D01*
X234283333Y-63722761D01*
X234378571Y-63770380D01*
X234569047Y-63770380D01*
X234664285Y-63722761D01*
X234711904Y-63675142D01*
X234759523Y-63579904D01*
X234759523Y-62770380D01*
X235188095Y-62865619D02*
X235235714Y-62818000D01*
X235330952Y-62770380D01*
X235569047Y-62770380D01*
X235664285Y-62818000D01*
X235711904Y-62865619D01*
X235759523Y-62960857D01*
X235759523Y-63056095D01*
X235711904Y-63198952D01*
X235140476Y-63770380D01*
X235759523Y-63770380D01*
%TO.C,U1*%
X251445095Y-41404380D02*
X251445095Y-42213904D01*
X251492714Y-42309142D01*
X251540333Y-42356761D01*
X251635571Y-42404380D01*
X251826047Y-42404380D01*
X251921285Y-42356761D01*
X251968904Y-42309142D01*
X252016523Y-42213904D01*
X252016523Y-41404380D01*
X253016523Y-42404380D02*
X252445095Y-42404380D01*
X252730809Y-42404380D02*
X252730809Y-41404380D01*
X252635571Y-41547238D01*
X252540333Y-41642476D01*
X252445095Y-41690095D01*
%TO.C,Current*%
X215987142Y-67841571D02*
X216034761Y-67889190D01*
X216082380Y-68032047D01*
X216082380Y-68127285D01*
X216034761Y-68270142D01*
X215939523Y-68365380D01*
X215844285Y-68413000D01*
X215653809Y-68460619D01*
X215510952Y-68460619D01*
X215320476Y-68413000D01*
X215225238Y-68365380D01*
X215130000Y-68270142D01*
X215082380Y-68127285D01*
X215082380Y-68032047D01*
X215130000Y-67889190D01*
X215177619Y-67841571D01*
X215415714Y-66984428D02*
X216082380Y-66984428D01*
X215415714Y-67413000D02*
X215939523Y-67413000D01*
X216034761Y-67365380D01*
X216082380Y-67270142D01*
X216082380Y-67127285D01*
X216034761Y-67032047D01*
X215987142Y-66984428D01*
X216082380Y-66508238D02*
X215415714Y-66508238D01*
X215606190Y-66508238D02*
X215510952Y-66460619D01*
X215463333Y-66413000D01*
X215415714Y-66317761D01*
X215415714Y-66222523D01*
X216082380Y-65889190D02*
X215415714Y-65889190D01*
X215606190Y-65889190D02*
X215510952Y-65841571D01*
X215463333Y-65793952D01*
X215415714Y-65698714D01*
X215415714Y-65603476D01*
X216034761Y-64889190D02*
X216082380Y-64984428D01*
X216082380Y-65174904D01*
X216034761Y-65270142D01*
X215939523Y-65317761D01*
X215558571Y-65317761D01*
X215463333Y-65270142D01*
X215415714Y-65174904D01*
X215415714Y-64984428D01*
X215463333Y-64889190D01*
X215558571Y-64841571D01*
X215653809Y-64841571D01*
X215749047Y-65317761D01*
X215415714Y-64413000D02*
X216082380Y-64413000D01*
X215510952Y-64413000D02*
X215463333Y-64365380D01*
X215415714Y-64270142D01*
X215415714Y-64127285D01*
X215463333Y-64032047D01*
X215558571Y-63984428D01*
X216082380Y-63984428D01*
X215415714Y-63651095D02*
X215415714Y-63270142D01*
X215082380Y-63508238D02*
X215939523Y-63508238D01*
X216034761Y-63460619D01*
X216082380Y-63365380D01*
X216082380Y-63270142D01*
%TO.C,Voltage*%
X189460380Y-42671666D02*
X190460380Y-42338333D01*
X189460380Y-42005000D01*
X190460380Y-41528809D02*
X190412761Y-41624047D01*
X190365142Y-41671666D01*
X190269904Y-41719285D01*
X189984190Y-41719285D01*
X189888952Y-41671666D01*
X189841333Y-41624047D01*
X189793714Y-41528809D01*
X189793714Y-41385952D01*
X189841333Y-41290714D01*
X189888952Y-41243095D01*
X189984190Y-41195476D01*
X190269904Y-41195476D01*
X190365142Y-41243095D01*
X190412761Y-41290714D01*
X190460380Y-41385952D01*
X190460380Y-41528809D01*
X190460380Y-40624047D02*
X190412761Y-40719285D01*
X190317523Y-40766904D01*
X189460380Y-40766904D01*
X189793714Y-40385952D02*
X189793714Y-40005000D01*
X189460380Y-40243095D02*
X190317523Y-40243095D01*
X190412761Y-40195476D01*
X190460380Y-40100238D01*
X190460380Y-40005000D01*
X190460380Y-39243095D02*
X189936571Y-39243095D01*
X189841333Y-39290714D01*
X189793714Y-39385952D01*
X189793714Y-39576428D01*
X189841333Y-39671666D01*
X190412761Y-39243095D02*
X190460380Y-39338333D01*
X190460380Y-39576428D01*
X190412761Y-39671666D01*
X190317523Y-39719285D01*
X190222285Y-39719285D01*
X190127047Y-39671666D01*
X190079428Y-39576428D01*
X190079428Y-39338333D01*
X190031809Y-39243095D01*
X189793714Y-38338333D02*
X190603238Y-38338333D01*
X190698476Y-38385952D01*
X190746095Y-38433571D01*
X190793714Y-38528809D01*
X190793714Y-38671666D01*
X190746095Y-38766904D01*
X190412761Y-38338333D02*
X190460380Y-38433571D01*
X190460380Y-38624047D01*
X190412761Y-38719285D01*
X190365142Y-38766904D01*
X190269904Y-38814523D01*
X189984190Y-38814523D01*
X189888952Y-38766904D01*
X189841333Y-38719285D01*
X189793714Y-38624047D01*
X189793714Y-38433571D01*
X189841333Y-38338333D01*
X190412761Y-37481190D02*
X190460380Y-37576428D01*
X190460380Y-37766904D01*
X190412761Y-37862142D01*
X190317523Y-37909761D01*
X189936571Y-37909761D01*
X189841333Y-37862142D01*
X189793714Y-37766904D01*
X189793714Y-37576428D01*
X189841333Y-37481190D01*
X189936571Y-37433571D01*
X190031809Y-37433571D01*
X190127047Y-37909761D01*
%TO.C,R7*%
X203644833Y-68525380D02*
X203311500Y-68049190D01*
X203073404Y-68525380D02*
X203073404Y-67525380D01*
X203454357Y-67525380D01*
X203549595Y-67573000D01*
X203597214Y-67620619D01*
X203644833Y-67715857D01*
X203644833Y-67858714D01*
X203597214Y-67953952D01*
X203549595Y-68001571D01*
X203454357Y-68049190D01*
X203073404Y-68049190D01*
X203978166Y-67525380D02*
X204644833Y-67525380D01*
X204216261Y-68525380D01*
%TO.C,R6*%
X198700380Y-70778666D02*
X198224190Y-71112000D01*
X198700380Y-71350095D02*
X197700380Y-71350095D01*
X197700380Y-70969142D01*
X197748000Y-70873904D01*
X197795619Y-70826285D01*
X197890857Y-70778666D01*
X198033714Y-70778666D01*
X198128952Y-70826285D01*
X198176571Y-70873904D01*
X198224190Y-70969142D01*
X198224190Y-71350095D01*
X197700380Y-69921523D02*
X197700380Y-70112000D01*
X197748000Y-70207238D01*
X197795619Y-70254857D01*
X197938476Y-70350095D01*
X198128952Y-70397714D01*
X198509904Y-70397714D01*
X198605142Y-70350095D01*
X198652761Y-70302476D01*
X198700380Y-70207238D01*
X198700380Y-70016761D01*
X198652761Y-69921523D01*
X198605142Y-69873904D01*
X198509904Y-69826285D01*
X198271809Y-69826285D01*
X198176571Y-69873904D01*
X198128952Y-69921523D01*
X198081333Y-70016761D01*
X198081333Y-70207238D01*
X198128952Y-70302476D01*
X198176571Y-70350095D01*
X198271809Y-70397714D01*
%TO.C,R5*%
X197937380Y-61634666D02*
X197461190Y-61968000D01*
X197937380Y-62206095D02*
X196937380Y-62206095D01*
X196937380Y-61825142D01*
X196985000Y-61729904D01*
X197032619Y-61682285D01*
X197127857Y-61634666D01*
X197270714Y-61634666D01*
X197365952Y-61682285D01*
X197413571Y-61729904D01*
X197461190Y-61825142D01*
X197461190Y-62206095D01*
X196937380Y-60729904D02*
X196937380Y-61206095D01*
X197413571Y-61253714D01*
X197365952Y-61206095D01*
X197318333Y-61110857D01*
X197318333Y-60872761D01*
X197365952Y-60777523D01*
X197413571Y-60729904D01*
X197508809Y-60682285D01*
X197746904Y-60682285D01*
X197842142Y-60729904D01*
X197889761Y-60777523D01*
X197937380Y-60872761D01*
X197937380Y-61110857D01*
X197889761Y-61206095D01*
X197842142Y-61253714D01*
%TO.C,R4*%
X200516833Y-59889380D02*
X200183500Y-59413190D01*
X199945404Y-59889380D02*
X199945404Y-58889380D01*
X200326357Y-58889380D01*
X200421595Y-58937000D01*
X200469214Y-58984619D01*
X200516833Y-59079857D01*
X200516833Y-59222714D01*
X200469214Y-59317952D01*
X200421595Y-59365571D01*
X200326357Y-59413190D01*
X199945404Y-59413190D01*
X201373976Y-59222714D02*
X201373976Y-59889380D01*
X201135880Y-58841761D02*
X200897785Y-59556047D01*
X201516833Y-59556047D01*
%TO.C,R3*%
X198334333Y-56460380D02*
X198001000Y-55984190D01*
X197762904Y-56460380D02*
X197762904Y-55460380D01*
X198143857Y-55460380D01*
X198239095Y-55508000D01*
X198286714Y-55555619D01*
X198334333Y-55650857D01*
X198334333Y-55793714D01*
X198286714Y-55888952D01*
X198239095Y-55936571D01*
X198143857Y-55984190D01*
X197762904Y-55984190D01*
X198667666Y-55460380D02*
X199286714Y-55460380D01*
X198953380Y-55841333D01*
X199096238Y-55841333D01*
X199191476Y-55888952D01*
X199239095Y-55936571D01*
X199286714Y-56031809D01*
X199286714Y-56269904D01*
X199239095Y-56365142D01*
X199191476Y-56412761D01*
X199096238Y-56460380D01*
X198810523Y-56460380D01*
X198715285Y-56412761D01*
X198667666Y-56365142D01*
%TO.C,R2*%
X245173833Y-36013380D02*
X244840500Y-35537190D01*
X244602404Y-36013380D02*
X244602404Y-35013380D01*
X244983357Y-35013380D01*
X245078595Y-35061000D01*
X245126214Y-35108619D01*
X245173833Y-35203857D01*
X245173833Y-35346714D01*
X245126214Y-35441952D01*
X245078595Y-35489571D01*
X244983357Y-35537190D01*
X244602404Y-35537190D01*
X245554785Y-35108619D02*
X245602404Y-35061000D01*
X245697642Y-35013380D01*
X245935738Y-35013380D01*
X246030976Y-35061000D01*
X246078595Y-35108619D01*
X246126214Y-35203857D01*
X246126214Y-35299095D01*
X246078595Y-35441952D01*
X245507166Y-36013380D01*
X246126214Y-36013380D01*
%TO.C,R1*%
X247737333Y-43504380D02*
X247404000Y-43028190D01*
X247165904Y-43504380D02*
X247165904Y-42504380D01*
X247546857Y-42504380D01*
X247642095Y-42552000D01*
X247689714Y-42599619D01*
X247737333Y-42694857D01*
X247737333Y-42837714D01*
X247689714Y-42932952D01*
X247642095Y-42980571D01*
X247546857Y-43028190D01*
X247165904Y-43028190D01*
X248689714Y-43504380D02*
X248118285Y-43504380D01*
X248404000Y-43504380D02*
X248404000Y-42504380D01*
X248308761Y-42647238D01*
X248213523Y-42742476D01*
X248118285Y-42790095D01*
%TO.C,L2*%
X239257333Y-47907380D02*
X238781142Y-47907380D01*
X238781142Y-46907380D01*
X239543047Y-47002619D02*
X239590666Y-46955000D01*
X239685904Y-46907380D01*
X239924000Y-46907380D01*
X240019238Y-46955000D01*
X240066857Y-47002619D01*
X240114476Y-47097857D01*
X240114476Y-47193095D01*
X240066857Y-47335952D01*
X239495428Y-47907380D01*
X240114476Y-47907380D01*
%TO.C,L1*%
X228714380Y-58945666D02*
X228714380Y-59421857D01*
X227714380Y-59421857D01*
X228714380Y-58088523D02*
X228714380Y-58659952D01*
X228714380Y-58374238D02*
X227714380Y-58374238D01*
X227857238Y-58469476D01*
X227952476Y-58564714D01*
X228000095Y-58659952D01*
%TO.C,GND    -     +*%
X187714000Y-66515571D02*
X187666380Y-66610809D01*
X187666380Y-66753666D01*
X187714000Y-66896523D01*
X187809238Y-66991761D01*
X187904476Y-67039380D01*
X188094952Y-67087000D01*
X188237809Y-67087000D01*
X188428285Y-67039380D01*
X188523523Y-66991761D01*
X188618761Y-66896523D01*
X188666380Y-66753666D01*
X188666380Y-66658428D01*
X188618761Y-66515571D01*
X188571142Y-66467952D01*
X188237809Y-66467952D01*
X188237809Y-66658428D01*
X188666380Y-66039380D02*
X187666380Y-66039380D01*
X188666380Y-65467952D01*
X187666380Y-65467952D01*
X188666380Y-64991761D02*
X187666380Y-64991761D01*
X187666380Y-64753666D01*
X187714000Y-64610809D01*
X187809238Y-64515571D01*
X187904476Y-64467952D01*
X188094952Y-64420333D01*
X188237809Y-64420333D01*
X188428285Y-64467952D01*
X188523523Y-64515571D01*
X188618761Y-64610809D01*
X188666380Y-64753666D01*
X188666380Y-64991761D01*
X188285428Y-60944142D02*
X188285428Y-60182238D01*
X188285428Y-55896523D02*
X188285428Y-55134619D01*
X188666380Y-55515571D02*
X187904476Y-55515571D01*
%TO.C,+     -*%
X252746238Y-57475428D02*
X253508142Y-57475428D01*
X253127190Y-57856380D02*
X253127190Y-57094476D01*
X257793857Y-57475428D02*
X258555761Y-57475428D01*
%TO.C,F1*%
X245284666Y-59616571D02*
X244951333Y-59616571D01*
X244951333Y-60140380D02*
X244951333Y-59140380D01*
X245427523Y-59140380D01*
X246332285Y-60140380D02*
X245760857Y-60140380D01*
X246046571Y-60140380D02*
X246046571Y-59140380D01*
X245951333Y-59283238D01*
X245856095Y-59378476D01*
X245760857Y-59426095D01*
%TO.C,D4*%
X206864380Y-47093095D02*
X205864380Y-47093095D01*
X205864380Y-46855000D01*
X205912000Y-46712142D01*
X206007238Y-46616904D01*
X206102476Y-46569285D01*
X206292952Y-46521666D01*
X206435809Y-46521666D01*
X206626285Y-46569285D01*
X206721523Y-46616904D01*
X206816761Y-46712142D01*
X206864380Y-46855000D01*
X206864380Y-47093095D01*
X206197714Y-45664523D02*
X206864380Y-45664523D01*
X205816761Y-45902619D02*
X206531047Y-46140714D01*
X206531047Y-45521666D01*
X205744380Y-38996904D02*
X204744380Y-38996904D01*
X205744380Y-38425476D02*
X205172952Y-38854047D01*
X204744380Y-38425476D02*
X205315809Y-38996904D01*
%TO.C,D3*%
X216685904Y-37753380D02*
X216685904Y-36753380D01*
X216924000Y-36753380D01*
X217066857Y-36801000D01*
X217162095Y-36896238D01*
X217209714Y-36991476D01*
X217257333Y-37181952D01*
X217257333Y-37324809D01*
X217209714Y-37515285D01*
X217162095Y-37610523D01*
X217066857Y-37705761D01*
X216924000Y-37753380D01*
X216685904Y-37753380D01*
X217590666Y-36753380D02*
X218209714Y-36753380D01*
X217876380Y-37134333D01*
X218019238Y-37134333D01*
X218114476Y-37181952D01*
X218162095Y-37229571D01*
X218209714Y-37324809D01*
X218209714Y-37562904D01*
X218162095Y-37658142D01*
X218114476Y-37705761D01*
X218019238Y-37753380D01*
X217733523Y-37753380D01*
X217638285Y-37705761D01*
X217590666Y-37658142D01*
X209542095Y-38873380D02*
X209542095Y-37873380D01*
X210113523Y-38873380D02*
X209684952Y-38301952D01*
X210113523Y-37873380D02*
X209542095Y-38444809D01*
%TO.C,D2*%
X216177904Y-45754380D02*
X216177904Y-44754380D01*
X216416000Y-44754380D01*
X216558857Y-44802000D01*
X216654095Y-44897238D01*
X216701714Y-44992476D01*
X216749333Y-45182952D01*
X216749333Y-45325809D01*
X216701714Y-45516285D01*
X216654095Y-45611523D01*
X216558857Y-45706761D01*
X216416000Y-45754380D01*
X216177904Y-45754380D01*
X217130285Y-44849619D02*
X217177904Y-44802000D01*
X217273142Y-44754380D01*
X217511238Y-44754380D01*
X217606476Y-44802000D01*
X217654095Y-44849619D01*
X217701714Y-44944857D01*
X217701714Y-45040095D01*
X217654095Y-45182952D01*
X217082666Y-45754380D01*
X217701714Y-45754380D01*
X209034095Y-46874380D02*
X209034095Y-45874380D01*
X209605523Y-46874380D02*
X209176952Y-46302952D01*
X209605523Y-45874380D02*
X209034095Y-46445809D01*
%TO.C,D1*%
X212228404Y-53320380D02*
X212228404Y-52320380D01*
X212466500Y-52320380D01*
X212609357Y-52368000D01*
X212704595Y-52463238D01*
X212752214Y-52558476D01*
X212799833Y-52748952D01*
X212799833Y-52891809D01*
X212752214Y-53082285D01*
X212704595Y-53177523D01*
X212609357Y-53272761D01*
X212466500Y-53320380D01*
X212228404Y-53320380D01*
X213752214Y-53320380D02*
X213180785Y-53320380D01*
X213466500Y-53320380D02*
X213466500Y-52320380D01*
X213371261Y-52463238D01*
X213276023Y-52558476D01*
X213180785Y-52606095D01*
%TO.C,C6*%
X227846142Y-67601166D02*
X227893761Y-67648785D01*
X227941380Y-67791642D01*
X227941380Y-67886880D01*
X227893761Y-68029738D01*
X227798523Y-68124976D01*
X227703285Y-68172595D01*
X227512809Y-68220214D01*
X227369952Y-68220214D01*
X227179476Y-68172595D01*
X227084238Y-68124976D01*
X226989000Y-68029738D01*
X226941380Y-67886880D01*
X226941380Y-67791642D01*
X226989000Y-67648785D01*
X227036619Y-67601166D01*
X226941380Y-66744023D02*
X226941380Y-66934500D01*
X226989000Y-67029738D01*
X227036619Y-67077357D01*
X227179476Y-67172595D01*
X227369952Y-67220214D01*
X227750904Y-67220214D01*
X227846142Y-67172595D01*
X227893761Y-67124976D01*
X227941380Y-67029738D01*
X227941380Y-66839261D01*
X227893761Y-66744023D01*
X227846142Y-66696404D01*
X227750904Y-66648785D01*
X227512809Y-66648785D01*
X227417571Y-66696404D01*
X227369952Y-66744023D01*
X227322333Y-66839261D01*
X227322333Y-67029738D01*
X227369952Y-67124976D01*
X227417571Y-67172595D01*
X227512809Y-67220214D01*
%TO.C,C5*%
X220321142Y-62904666D02*
X220368761Y-62952285D01*
X220416380Y-63095142D01*
X220416380Y-63190380D01*
X220368761Y-63333238D01*
X220273523Y-63428476D01*
X220178285Y-63476095D01*
X219987809Y-63523714D01*
X219844952Y-63523714D01*
X219654476Y-63476095D01*
X219559238Y-63428476D01*
X219464000Y-63333238D01*
X219416380Y-63190380D01*
X219416380Y-63095142D01*
X219464000Y-62952285D01*
X219511619Y-62904666D01*
X219416380Y-61999904D02*
X219416380Y-62476095D01*
X219892571Y-62523714D01*
X219844952Y-62476095D01*
X219797333Y-62380857D01*
X219797333Y-62142761D01*
X219844952Y-62047523D01*
X219892571Y-61999904D01*
X219987809Y-61952285D01*
X220225904Y-61952285D01*
X220321142Y-61999904D01*
X220368761Y-62047523D01*
X220416380Y-62142761D01*
X220416380Y-62380857D01*
X220368761Y-62476095D01*
X220321142Y-62523714D01*
%TO.C,C4*%
X177617142Y-40428166D02*
X177664761Y-40475785D01*
X177712380Y-40618642D01*
X177712380Y-40713880D01*
X177664761Y-40856738D01*
X177569523Y-40951976D01*
X177474285Y-40999595D01*
X177283809Y-41047214D01*
X177140952Y-41047214D01*
X176950476Y-40999595D01*
X176855238Y-40951976D01*
X176760000Y-40856738D01*
X176712380Y-40713880D01*
X176712380Y-40618642D01*
X176760000Y-40475785D01*
X176807619Y-40428166D01*
X177045714Y-39571023D02*
X177712380Y-39571023D01*
X176664761Y-39809119D02*
X177379047Y-40047214D01*
X177379047Y-39428166D01*
%TO.C,C3*%
X252375333Y-39121142D02*
X252327714Y-39168761D01*
X252184857Y-39216380D01*
X252089619Y-39216380D01*
X251946761Y-39168761D01*
X251851523Y-39073523D01*
X251803904Y-38978285D01*
X251756285Y-38787809D01*
X251756285Y-38644952D01*
X251803904Y-38454476D01*
X251851523Y-38359238D01*
X251946761Y-38264000D01*
X252089619Y-38216380D01*
X252184857Y-38216380D01*
X252327714Y-38264000D01*
X252375333Y-38311619D01*
X252708666Y-38216380D02*
X253327714Y-38216380D01*
X252994380Y-38597333D01*
X253137238Y-38597333D01*
X253232476Y-38644952D01*
X253280095Y-38692571D01*
X253327714Y-38787809D01*
X253327714Y-39025904D01*
X253280095Y-39121142D01*
X253232476Y-39168761D01*
X253137238Y-39216380D01*
X252851523Y-39216380D01*
X252756285Y-39168761D01*
X252708666Y-39121142D01*
%TO.C,C2*%
X228227142Y-57570666D02*
X228274761Y-57618285D01*
X228322380Y-57761142D01*
X228322380Y-57856380D01*
X228274761Y-57999238D01*
X228179523Y-58094476D01*
X228084285Y-58142095D01*
X227893809Y-58189714D01*
X227750952Y-58189714D01*
X227560476Y-58142095D01*
X227465238Y-58094476D01*
X227370000Y-57999238D01*
X227322380Y-57856380D01*
X227322380Y-57761142D01*
X227370000Y-57618285D01*
X227417619Y-57570666D01*
X227417619Y-57189714D02*
X227370000Y-57142095D01*
X227322380Y-57046857D01*
X227322380Y-56808761D01*
X227370000Y-56713523D01*
X227417619Y-56665904D01*
X227512857Y-56618285D01*
X227608095Y-56618285D01*
X227750952Y-56665904D01*
X228322380Y-57237333D01*
X228322380Y-56618285D01*
%TO.C,C1*%
X244168142Y-68685666D02*
X244215761Y-68733285D01*
X244263380Y-68876142D01*
X244263380Y-68971380D01*
X244215761Y-69114238D01*
X244120523Y-69209476D01*
X244025285Y-69257095D01*
X243834809Y-69304714D01*
X243691952Y-69304714D01*
X243501476Y-69257095D01*
X243406238Y-69209476D01*
X243311000Y-69114238D01*
X243263380Y-68971380D01*
X243263380Y-68876142D01*
X243311000Y-68733285D01*
X243358619Y-68685666D01*
X244263380Y-67733285D02*
X244263380Y-68304714D01*
X244263380Y-68019000D02*
X243263380Y-68019000D01*
X243406238Y-68114238D01*
X243501476Y-68209476D01*
X243549095Y-68304714D01*
%TD*%
M02*
