M48
; DRILL file {KiCad (5.1.10)-1} date 08/31/21 13:48:01
; FORMAT={-:-/ absolute / inch / decimal}
; #@! TF.CreationDate,2021-08-31T13:48:01-07:00
; #@! TF.GenerationSoftware,Kicad,Pcbnew,(5.1.10)-1
; #@! TF.FileFunction,Plated,1,2,PTH
FMAT,2
INCH
T1C0.0157
T2C0.0315
T3C0.0472
T4C0.0591
T5C0.0630
%
G90
G05
T1
X6.875Y-2.755
X6.875Y-2.815
X6.91Y-1.355
X6.91Y-1.455
X6.91Y-1.56
X6.91Y-1.66
X6.91Y-1.75
X6.91Y-1.845
X6.91Y-1.965
X6.975Y-2.755
X6.975Y-2.815
X6.99Y-1.355
X7.0Y-1.75
X7.0Y-1.845
X7.0Y-1.965
X7.08Y-2.755
X7.08Y-2.815
X7.1Y-1.355
X7.125Y-2.705
X7.15Y-1.385
X7.18Y-2.755
X7.18Y-2.815
X7.195Y-1.355
X7.24Y-1.755
X7.24Y-1.85
X7.24Y-1.97
X7.27Y-2.755
X7.27Y-2.815
X7.285Y-1.355
X7.355Y-1.755
X7.355Y-1.85
X7.355Y-1.97
X7.365Y-2.755
X7.365Y-2.815
X7.385Y-1.355
X7.49Y-1.355
X7.495Y-1.475
X7.57Y-1.405
X7.59Y-1.355
X7.665Y-1.355
X7.775Y-1.355
X7.8Y-1.93
X7.8Y-2.025
X7.8Y-2.115
X7.805Y-1.61
X7.805Y-1.705
X7.805Y-1.795
X7.82Y-2.61
X7.87Y-1.355
X7.89Y-2.645
X7.94Y-2.34
X7.96Y-1.355
X8.06Y-1.355
X8.145Y-2.095
X8.145Y-2.19
X8.145Y-2.31
X8.165Y-1.355
X8.195Y-2.65
X8.195Y-2.74
X8.195Y-2.835
X8.265Y-1.355
X8.305Y-2.835
X8.34Y-1.355
X8.4Y-2.775
X8.4Y-2.835
X8.45Y-1.355
X8.49Y-2.835
X8.505Y-2.695
X8.545Y-1.355
X8.57Y-2.375
X8.585Y-2.645
X8.585Y-2.735
X8.585Y-2.83
X8.635Y-1.355
X8.655Y-2.815
X8.66Y-2.425
X8.725Y-2.42
X8.735Y-1.355
X8.84Y-1.355
X8.925Y-2.82
X8.94Y-1.355
X9.5Y-2.58
X9.5Y-2.635
X9.5Y-2.69
X9.5Y-2.74
X9.5Y-2.8
X9.575Y-2.74
X9.58Y-2.825
X9.595Y-1.64
X9.6Y-2.13
X9.6Y-2.22
X9.6Y-2.315
X9.605Y-1.355
X9.675Y-2.825
X9.715Y-1.355
X9.745Y-1.465
X9.755Y-2.135
X9.755Y-2.225
X9.755Y-2.32
X9.755Y-2.735
X9.765Y-2.825
X9.785Y-1.905
X9.81Y-1.355
X9.81Y-1.465
X9.89Y-1.725
X9.89Y-1.81
X9.89Y-1.9
X9.89Y-1.99
X9.895Y-1.64
X9.9Y-1.355
X9.905Y-2.16
X10.0Y-1.355
X10.0Y-1.55
X10.0Y-1.64
X10.01Y-2.16
X10.03Y-1.46
X10.1Y-1.64
X10.105Y-1.355
X10.105Y-1.46
X10.105Y-1.545
X10.11Y-2.16
X10.205Y-1.355
X10.205Y-1.465
X10.205Y-1.555
X10.205Y-1.64
X10.215Y-2.16
T2
X7.57Y-1.475
X7.57Y-1.675
X7.67Y-1.575
X8.3Y-2.595
X8.4Y-2.495
X8.4Y-2.695
T3
X7.6Y-1.87
X7.6Y-2.7519
T4
X7.125Y-2.1763
X7.125Y-2.3731
X7.125Y-2.57
X9.945Y-2.545
X10.1419Y-2.545
T5
X7.98Y-1.525
X7.98Y-2.125
X8.24Y-1.93
X8.26Y-1.615
X8.84Y-1.93
X8.86Y-1.615
T0
M30
